<svg width="20" height="20" viewBox="0 0 20 20" fill="none" xmlns="http://www.w3.org/2000/svg">
<g clip-path="url(#clip0_301_2)">
<path fill-rule="evenodd" clip-rule="evenodd" d="M4.28915 0.786286C3.63349 1.16079 1.62887 3.45703 1.05765 4.48792C0.922336 4.7321 0.917083 4.75599 0.942832 5.00755C1.02943 5.85225 1.40779 7.06538 1.9301 8.17297C2.50585 9.39399 3.47947 10.8549 4.58748 12.1604C5.15253 12.8262 6.4768 14.143 7.1347 14.6933C9.51561 16.6848 11.9135 17.9305 14.0747 18.2985C14.2691 18.3316 14.4825 18.3587 14.549 18.3587C14.7773 18.3587 15.4063 17.9574 16.356 17.2058C17.5825 16.2353 18.5476 15.2875 18.713 14.8913C18.8454 14.5743 18.5855 14.2754 17.6337 13.6504C16.2532 12.7437 14.9675 12.0265 14.3599 11.8242C14.0755 11.7295 14.0533 11.7276 13.9109 11.7866C13.7189 11.866 13.5922 11.987 13.044 12.6144C12.7974 12.8967 12.5157 13.2043 12.418 13.298L12.2404 13.4684L11.9859 13.4031C11.1566 13.1906 10.0365 12.6101 9.10645 11.9109C8.69502 11.6015 8.00217 10.9362 7.6192 10.4825C6.89735 9.62752 6.21262 8.39291 5.93762 7.45058L5.8478 7.14268L6.06342 6.92361C6.18202 6.80311 6.47605 6.53908 6.71682 6.33686C7.27216 5.87049 7.47354 5.6637 7.55019 5.48099C7.60666 5.34636 7.60519 5.31604 7.53061 5.07652C7.30762 4.36024 5.6781 1.63813 5.08925 0.998133C4.76183 0.642265 4.61112 0.602391 4.28915 0.786286ZM10.4777 1.30355V1.93522L10.6668 1.93553C11.4956 1.93696 12.5965 2.20226 13.4513 2.60661C14.9114 3.29722 16.0144 4.36775 16.7258 5.78447C17.1716 6.67224 17.3611 7.34063 17.4506 8.34076L17.4992 8.8836H18.1274H18.7557V8.71013C18.7557 8.40677 18.6781 7.73349 18.5915 7.28469C18.3559 6.06402 17.7 4.67126 16.9197 3.73493C15.4938 2.02385 13.5831 0.983684 11.4007 0.730423C11.1232 0.698208 10.802 0.671875 10.6869 0.671875H10.4777V1.30355ZM10.4777 4.45057V5.0822L10.792 5.10822C11.7204 5.18505 12.5265 5.56828 13.2039 6.25486C13.8478 6.90758 14.2064 7.67905 14.2835 8.57764L14.3098 8.8836H14.9408H15.5718V8.72087C15.5718 8.17625 15.3276 7.21133 15.0518 6.666C14.5663 5.70618 13.7046 4.84181 12.7661 4.37319C12.1744 4.07777 11.5114 3.89632 10.8401 3.84602L10.4777 3.8189V4.45057Z" fill="#FFECCC"/>
</g>
<defs>
<clipPath id="clip0_301_2">
<rect width="19.9981" height="19.8381" fill="white"/>
</clipPath>
</defs>
</svg>
