<svg width="23" height="23" viewBox="0 0 23 23" fill="none" xmlns="http://www.w3.org/2000/svg">
<path fill-rule="evenodd" clip-rule="evenodd" d="M16.0485 2.84189L16.0663 4.52395L14.8445 4.54593C12.997 4.57928 12.9872 4.5893 12.9872 6.43696V7.60854H14.5591C15.4236 7.60854 16.1309 7.61749 16.1309 7.62845C16.1309 7.63941 16.0557 8.3642 15.9637 9.23914C15.8717 10.114 15.7965 10.8869 15.7965 10.9567C15.7965 11.0772 15.7266 11.0835 14.3918 11.0835H12.9872V16.0285V20.9736H10.9136H8.8401V16.0285V11.0835H7.87021H6.90033V9.34599V7.60854H7.86245H8.82458L8.85722 6.05485C8.89428 4.29594 8.96377 3.91905 9.40644 3.07745C9.95673 2.03123 10.9649 1.36766 12.2622 1.19785C12.4954 1.16731 13.4387 1.14626 14.3584 1.15108L16.0306 1.1599L16.0485 2.84189Z" fill="#FFFAF6"/>
<path fill-rule="evenodd" clip-rule="evenodd" d="M16.0485 2.84189L16.0663 4.52395L14.8445 4.54593C12.997 4.57928 12.9872 4.5893 12.9872 6.43696V7.60854H14.5591C15.4236 7.60854 16.1309 7.61749 16.1309 7.62845C16.1309 7.63941 16.0557 8.3642 15.9637 9.23914C15.8717 10.114 15.7965 10.8869 15.7965 10.9567C15.7965 11.0772 15.7266 11.0835 14.3918 11.0835H12.9872V16.0285V20.9736H10.9136H8.8401V16.0285V11.0835H7.87021H6.90033V9.34599V7.60854H7.86245H8.82458L8.85722 6.05485C8.89428 4.29594 8.96377 3.91905 9.40644 3.07745C9.95673 2.03123 10.9649 1.36766 12.2622 1.19785C12.4954 1.16731 13.4387 1.14626 14.3584 1.15108L16.0306 1.1599L16.0485 2.84189Z" fill="#FFFAF6"/>
</svg>
