<svg width="23" height="23" viewBox="0 0 23 23" fill="none" xmlns="http://www.w3.org/2000/svg">
<path fill-rule="evenodd" clip-rule="evenodd" d="M15.8852 2.43457C17.7923 3.00717 19.1595 4.41618 19.6451 6.30949C19.7869 6.86206 19.7869 15.1885 19.6451 15.741C19.1448 17.6916 17.6923 19.143 15.7403 19.643C15.1873 19.7846 6.85473 19.7846 6.30174 19.643C4.39144 19.1537 2.96373 17.759 2.41937 15.8504C2.31199 15.4739 2.3005 15.0069 2.3005 11.0253C2.3005 6.20649 2.29051 6.34311 2.71238 5.38997C3.3592 3.92847 4.82555 2.71588 6.30167 2.42172C6.50857 2.38044 6.73941 2.33383 6.81465 2.31811C6.88988 2.30239 8.87508 2.29624 11.2262 2.30437C15.0124 2.31749 15.5449 2.33239 15.8852 2.43457ZM6.59338 4.15941C6.00484 4.31776 5.54214 4.59381 5.0635 5.07216C4.57406 5.56117 4.30697 6.01512 4.14665 6.63017C3.99323 7.21855 3.99563 14.8409 4.14932 15.4307C4.31135 16.0522 4.63479 16.5902 5.11822 17.0421C5.60458 17.4968 6.03821 17.7425 6.62266 17.8945C7.21148 18.0478 14.8395 18.0454 15.4297 17.8919C16.0517 17.73 16.5901 17.4068 17.0423 16.9237C17.4973 16.4377 17.7432 16.0044 17.8954 15.4204C18.0466 14.8402 18.0466 7.21028 17.8954 6.63017C17.7432 6.04615 17.4973 5.61284 17.0423 5.12684C16.5901 4.64377 16.0517 4.32057 15.4297 4.15866C14.8585 4.01 7.14609 4.01062 6.59338 4.15941ZM15.846 5.42886C16.2186 5.52256 16.601 5.91712 16.6687 6.27778C16.7716 6.8257 16.3517 7.48298 15.8371 7.57942C15.2698 7.68576 14.7848 7.44252 14.5624 6.94018C14.2969 6.34052 14.593 5.67941 15.2274 5.45524C15.5647 5.33604 15.49 5.33926 15.846 5.42886ZM12.0084 6.61725C13.2633 6.88291 14.4732 7.82478 15.0432 8.97968C15.4271 9.75766 15.5579 10.3896 15.5159 11.2647C15.459 12.4556 15.0528 13.3513 14.1672 14.2393C13.3185 15.0904 12.2418 15.5329 11.0149 15.535C9.78003 15.5372 8.74185 15.1018 7.83929 14.2033C6.9431 13.3112 6.50686 12.2707 6.50686 11.0253C6.50686 9.78124 6.94255 8.74115 7.83888 7.84549C8.9614 6.72387 10.4459 6.28652 12.0084 6.61725ZM10.0406 8.45547C9.25872 8.78291 8.85484 9.16551 8.50636 9.90877C8.33981 10.264 8.31936 10.3862 8.31936 11.0253C8.31936 11.6902 8.33537 11.7767 8.53727 12.2025C8.80963 12.777 9.27144 13.2355 9.85828 13.5139C10.2674 13.7081 10.3602 13.7249 11.021 13.7249C11.6859 13.7249 11.7732 13.7088 12.1975 13.508C12.7806 13.2319 13.2293 12.7835 13.5056 12.2009C13.7065 11.7769 13.7227 11.6896 13.7227 11.0253C13.7227 10.3609 13.7065 10.2737 13.5056 9.84965C13.2293 9.267 12.7806 8.81859 12.1975 8.54254C11.7983 8.35357 11.6554 8.32322 11.0894 8.30702C10.5286 8.29089 10.385 8.31126 10.0406 8.45547Z" fill="#FFFAF6"/>
<path fill-rule="evenodd" clip-rule="evenodd" d="M15.8852 2.43457C17.7923 3.00717 19.1595 4.41618 19.6451 6.30949C19.7869 6.86206 19.7869 15.1885 19.6451 15.741C19.1448 17.6916 17.6923 19.143 15.7403 19.643C15.1873 19.7846 6.85473 19.7846 6.30174 19.643C4.39144 19.1537 2.96373 17.759 2.41937 15.8504C2.31199 15.4739 2.3005 15.0069 2.3005 11.0253C2.3005 6.20649 2.29051 6.34311 2.71238 5.38997C3.3592 3.92847 4.82555 2.71588 6.30167 2.42172C6.50857 2.38044 6.73941 2.33383 6.81465 2.31811C6.88988 2.30239 8.87508 2.29624 11.2262 2.30437C15.0124 2.31749 15.5449 2.33239 15.8852 2.43457ZM6.59338 4.15941C6.00484 4.31776 5.54214 4.59381 5.0635 5.07216C4.57406 5.56117 4.30697 6.01512 4.14665 6.63017C3.99323 7.21855 3.99563 14.8409 4.14932 15.4307C4.31135 16.0522 4.63479 16.5902 5.11822 17.0421C5.60458 17.4968 6.03821 17.7425 6.62266 17.8945C7.21148 18.0478 14.8395 18.0454 15.4297 17.8919C16.0517 17.73 16.5901 17.4068 17.0423 16.9237C17.4973 16.4377 17.7432 16.0044 17.8954 15.4204C18.0466 14.8402 18.0466 7.21028 17.8954 6.63017C17.7432 6.04615 17.4973 5.61284 17.0423 5.12684C16.5901 4.64377 16.0517 4.32057 15.4297 4.15866C14.8585 4.01 7.14609 4.01062 6.59338 4.15941ZM15.846 5.42886C16.2186 5.52256 16.601 5.91712 16.6687 6.27778C16.7716 6.8257 16.3517 7.48298 15.8371 7.57942C15.2698 7.68576 14.7848 7.44252 14.5624 6.94018C14.2969 6.34052 14.593 5.67941 15.2274 5.45524C15.5647 5.33604 15.49 5.33926 15.846 5.42886ZM12.0084 6.61725C13.2633 6.88291 14.4732 7.82478 15.0432 8.97968C15.4271 9.75766 15.5579 10.3896 15.5159 11.2647C15.459 12.4556 15.0528 13.3513 14.1672 14.2393C13.3185 15.0904 12.2418 15.5329 11.0149 15.535C9.78003 15.5372 8.74185 15.1018 7.83929 14.2033C6.9431 13.3112 6.50686 12.2707 6.50686 11.0253C6.50686 9.78124 6.94255 8.74115 7.83888 7.84549C8.9614 6.72387 10.4459 6.28652 12.0084 6.61725ZM10.0406 8.45547C9.25872 8.78291 8.85484 9.16551 8.50636 9.90877C8.33981 10.264 8.31936 10.3862 8.31936 11.0253C8.31936 11.6902 8.33537 11.7767 8.53727 12.2025C8.80963 12.777 9.27144 13.2355 9.85828 13.5139C10.2674 13.7081 10.3602 13.7249 11.021 13.7249C11.6859 13.7249 11.7732 13.7088 12.1975 13.508C12.7806 13.2319 13.2293 12.7835 13.5056 12.2009C13.7065 11.7769 13.7227 11.6896 13.7227 11.0253C13.7227 10.3609 13.7065 10.2737 13.5056 9.84965C13.2293 9.267 12.7806 8.81859 12.1975 8.54254C11.7983 8.35357 11.6554 8.32322 11.0894 8.30702C10.5286 8.29089 10.385 8.31126 10.0406 8.45547Z" fill="#FFFAF6"/>
</svg>
