<svg width="55" height="58" viewBox="0 0 55 58" fill="none" xmlns="http://www.w3.org/2000/svg">
<path d="M46.399 34.1053V20.6777C46.7835 20.5726 47.2173 20.4071 47.6639 20.2368C48.3924 19.9589 49.1549 19.6681 49.7928 19.6053V35.1777C49.2129 34.8472 47.2233 34.1256 46.399 34.1053Z" fill="#A08A71"/>
<path d="M8.59535 34.1053C7.77674 34.1256 5.78139 34.8472 5.20155 35.1777V19.6053C5.83946 19.6681 6.60191 19.9589 7.33042 20.2368C7.77699 20.4071 8.2108 20.5726 8.59535 20.6777V34.1053Z" fill="#A08A71"/>
<path d="M3.3938 19.6053H0V0H55V19.6053H51.6062V4.03302H3.3938V19.6053Z" fill="#A08A71"/>
<path d="M55 58H0V34.9079H3.3938V53.704H51.6062V34.9079H55V58Z" fill="#A08A71"/>
</svg>
