<svg width="210" height="210" viewBox="0 0 210 210" fill="none" xmlns="http://www.w3.org/2000/svg">
<circle cx="105" cy="105" r="105" fill="#E2D2B6" fill-opacity="0.1"/>
<path d="M107.195 140.642L106.893 140.34L106.548 140.592C93.0178 150.437 79.3259 156.851 67.4336 159.201C55.5305 161.553 45.5269 159.82 39.2271 153.52C31.4642 145.757 30.6468 132.32 35.8542 116.698C41.0509 101.108 52.2055 83.5016 68.1006 67.6065C83.9958 51.7114 101.602 40.5568 117.192 35.3601C132.814 30.1527 146.251 30.97 154.014 38.733C159.779 44.4983 161.714 53.3789 160.189 63.984C158.686 74.4344 153.829 86.4858 146.081 98.6822L134.958 87.5591C140.345 78.4696 143.485 70.1652 144.76 63.5727C145.405 60.237 145.576 57.3237 145.31 54.9609C145.045 52.6084 144.339 50.7426 143.172 49.5753C141.487 47.8903 138.356 47.1467 134.316 47.3306C130.244 47.5159 125.126 48.6473 119.325 50.8621C107.717 55.293 93.3085 64.0832 78.9429 78.4488C64.5774 92.8144 55.7871 107.223 51.3562 118.83C49.1414 124.632 48.01 129.75 47.8247 133.822C47.6408 137.862 48.3844 140.993 50.0694 142.678C51.3933 144.002 53.5892 144.733 56.377 144.9C59.1792 145.069 62.6544 144.672 66.6288 143.66C74.5803 141.636 84.5961 137.131 95.3476 129.626L95.8369 129.284L95.415 128.862L80.5036 113.951L124.994 113.951L124.994 158.441L107.195 140.642Z" stroke="#FFECCC" stroke-opacity="0.1"/>
<path d="M93.125 129.834C92.0833 130.528 91.0243 130.563 89.9479 129.938C88.8715 129.313 88.3333 128.375 88.3333 127.125V80.2502C88.3333 79.0002 88.8715 78.0627 89.9479 77.4377C91.0243 76.8127 92.0833 76.8475 93.125 77.5419L130 101.084C130.972 101.709 131.458 102.577 131.458 103.688C131.458 104.799 130.972 105.667 130 106.292L93.125 129.834ZM94.5833 121.5L122.604 103.688L94.5833 85.8752V121.5Z" fill="#FFECCC"/>
<path d="M77.5367 164L72.1007 151.4H75.2507L80.0027 162.56H78.1487L82.9727 151.4H85.8707L80.4167 164H77.5367ZM86.9005 164V154.316H89.7085V164H86.9005ZM88.3045 152.966C87.7885 152.966 87.3685 152.816 87.0445 152.516C86.7205 152.216 86.5585 151.844 86.5585 151.4C86.5585 150.956 86.7205 150.584 87.0445 150.284C87.3685 149.984 87.7885 149.834 88.3045 149.834C88.8205 149.834 89.2405 149.978 89.5645 150.266C89.8885 150.542 90.0505 150.902 90.0505 151.346C90.0505 151.814 89.8885 152.204 89.5645 152.516C89.2525 152.816 88.8325 152.966 88.3045 152.966ZM92.3146 164V154.316H94.9966V157.052L94.6186 156.26C94.9066 155.576 95.3686 155.06 96.0046 154.712C96.6406 154.352 97.4146 154.172 98.3266 154.172V156.764C98.2066 156.752 98.0986 156.746 98.0026 156.746C97.9066 156.734 97.8046 156.728 97.6966 156.728C96.9286 156.728 96.3046 156.95 95.8246 157.394C95.3566 157.826 95.1226 158.504 95.1226 159.428V164H92.3146ZM104.29 164.144C103.15 164.144 102.262 163.856 101.626 163.28C100.99 162.692 100.672 161.822 100.672 160.67V152.174H103.48V160.634C103.48 161.042 103.588 161.36 103.804 161.588C104.02 161.804 104.314 161.912 104.686 161.912C105.13 161.912 105.508 161.792 105.82 161.552L106.576 163.532C106.288 163.736 105.94 163.892 105.532 164C105.136 164.096 104.722 164.144 104.29 164.144ZM99.1782 156.692V154.532H105.892V156.692H99.1782ZM112.238 164.144C111.434 164.144 110.714 163.988 110.078 163.676C109.454 163.364 108.968 162.89 108.62 162.254C108.272 161.606 108.098 160.784 108.098 159.788V154.316H110.906V159.374C110.906 160.178 111.074 160.772 111.41 161.156C111.758 161.528 112.244 161.714 112.868 161.714C113.3 161.714 113.684 161.624 114.02 161.444C114.356 161.252 114.62 160.964 114.812 160.58C115.004 160.184 115.1 159.692 115.1 159.104V154.316H117.908V164H115.244V161.336L115.73 162.11C115.406 162.782 114.926 163.292 114.29 163.64C113.666 163.976 112.982 164.144 112.238 164.144ZM126.45 164V162.11L126.27 161.696V158.312C126.27 157.712 126.084 157.244 125.712 156.908C125.352 156.572 124.794 156.404 124.038 156.404C123.522 156.404 123.012 156.488 122.508 156.656C122.016 156.812 121.596 157.028 121.248 157.304L120.24 155.342C120.768 154.97 121.404 154.682 122.148 154.478C122.892 154.274 123.648 154.172 124.416 154.172C125.892 154.172 127.038 154.52 127.854 155.216C128.67 155.912 129.078 156.998 129.078 158.474V164H126.45ZM123.498 164.144C122.742 164.144 122.094 164.018 121.554 163.766C121.014 163.502 120.6 163.148 120.312 162.704C120.024 162.26 119.88 161.762 119.88 161.21C119.88 160.634 120.018 160.13 120.294 159.698C120.582 159.266 121.032 158.93 121.644 158.69C122.256 158.438 123.054 158.312 124.038 158.312H126.612V159.95H124.344C123.684 159.95 123.228 160.058 122.976 160.274C122.736 160.49 122.616 160.76 122.616 161.084C122.616 161.444 122.754 161.732 123.03 161.948C123.318 162.152 123.708 162.254 124.2 162.254C124.668 162.254 125.088 162.146 125.46 161.93C125.832 161.702 126.102 161.372 126.27 160.94L126.702 162.236C126.498 162.86 126.126 163.334 125.586 163.658C125.046 163.982 124.35 164.144 123.498 164.144ZM131.619 164V150.644H134.427V164H131.619ZM84.6115 186.144C83.4715 186.144 82.5835 185.856 81.9475 185.28C81.3115 184.692 80.9935 183.822 80.9935 182.67V174.174H83.8015V182.634C83.8015 183.042 83.9095 183.36 84.1255 183.588C84.3415 183.804 84.6355 183.912 85.0075 183.912C85.4515 183.912 85.8295 183.792 86.1415 183.552L86.8975 185.532C86.6095 185.736 86.2615 185.892 85.8535 186C85.4575 186.096 85.0435 186.144 84.6115 186.144ZM79.4995 178.692V176.532H86.2135V178.692H79.4995ZM92.5597 186.144C91.7557 186.144 91.0357 185.988 90.3997 185.676C89.7757 185.364 89.2897 184.89 88.9417 184.254C88.5937 183.606 88.4197 182.784 88.4197 181.788V176.316H91.2277V181.374C91.2277 182.178 91.3957 182.772 91.7317 183.156C92.0797 183.528 92.5657 183.714 93.1897 183.714C93.6217 183.714 94.0057 183.624 94.3417 183.444C94.6777 183.252 94.9417 182.964 95.1337 182.58C95.3257 182.184 95.4217 181.692 95.4217 181.104V176.316H98.2297V186H95.5657V183.336L96.0517 184.11C95.7277 184.782 95.2477 185.292 94.6117 185.64C93.9877 185.976 93.3037 186.144 92.5597 186.144ZM105.439 186.144C104.407 186.144 103.489 185.928 102.685 185.496C101.893 185.064 101.263 184.476 100.795 183.732C100.339 182.976 100.111 182.118 100.111 181.158C100.111 180.186 100.339 179.328 100.795 178.584C101.263 177.828 101.893 177.24 102.685 176.82C103.489 176.388 104.407 176.172 105.439 176.172C106.459 176.172 107.371 176.388 108.175 176.82C108.979 177.24 109.609 177.822 110.065 178.566C110.521 179.31 110.749 180.174 110.749 181.158C110.749 182.118 110.521 182.976 110.065 183.732C109.609 184.476 108.979 185.064 108.175 185.496C107.371 185.928 106.459 186.144 105.439 186.144ZM105.439 183.84C105.907 183.84 106.327 183.732 106.699 183.516C107.071 183.3 107.365 182.994 107.581 182.598C107.797 182.19 107.905 181.71 107.905 181.158C107.905 180.594 107.797 180.114 107.581 179.718C107.365 179.322 107.071 179.016 106.699 178.8C106.327 178.584 105.907 178.476 105.439 178.476C104.971 178.476 104.551 178.584 104.179 178.8C103.807 179.016 103.507 179.322 103.279 179.718C103.063 180.114 102.955 180.594 102.955 181.158C102.955 181.71 103.063 182.19 103.279 182.598C103.507 182.994 103.807 183.3 104.179 183.516C104.551 183.732 104.971 183.84 105.439 183.84ZM112.626 186V176.316H115.308V179.052L114.93 178.26C115.218 177.576 115.68 177.06 116.316 176.712C116.952 176.352 117.726 176.172 118.638 176.172V178.764C118.518 178.752 118.41 178.746 118.314 178.746C118.218 178.734 118.116 178.728 118.008 178.728C117.24 178.728 116.616 178.95 116.136 179.394C115.668 179.826 115.434 180.504 115.434 181.428V186H112.626ZM123.636 186.144C122.808 186.144 122.01 186.048 121.242 185.856C120.486 185.652 119.886 185.4 119.442 185.1L120.378 183.084C120.822 183.36 121.344 183.588 121.944 183.768C122.556 183.936 123.156 184.02 123.744 184.02C124.392 184.02 124.848 183.942 125.112 183.786C125.388 183.63 125.526 183.414 125.526 183.138C125.526 182.91 125.418 182.742 125.202 182.634C124.998 182.514 124.722 182.424 124.374 182.364C124.026 182.304 123.642 182.244 123.222 182.184C122.814 182.124 122.4 182.046 121.98 181.95C121.56 181.842 121.176 181.686 120.828 181.482C120.48 181.278 120.198 181.002 119.982 180.654C119.778 180.306 119.676 179.856 119.676 179.304C119.676 178.692 119.85 178.152 120.198 177.684C120.558 177.216 121.074 176.85 121.746 176.586C122.418 176.31 123.222 176.172 124.158 176.172C124.818 176.172 125.49 176.244 126.174 176.388C126.858 176.532 127.428 176.742 127.884 177.018L126.948 179.016C126.48 178.74 126.006 178.554 125.526 178.458C125.058 178.35 124.602 178.296 124.158 178.296C123.534 178.296 123.078 178.38 122.79 178.548C122.502 178.716 122.358 178.932 122.358 179.196C122.358 179.436 122.46 179.616 122.664 179.736C122.88 179.856 123.162 179.952 123.51 180.024C123.858 180.096 124.236 180.162 124.644 180.222C125.064 180.27 125.484 180.348 125.904 180.456C126.324 180.564 126.702 180.72 127.038 180.924C127.386 181.116 127.668 181.386 127.884 181.734C128.1 182.07 128.208 182.514 128.208 183.066C128.208 183.666 128.028 184.2 127.668 184.668C127.308 185.124 126.786 185.484 126.102 185.748C125.43 186.012 124.608 186.144 123.636 186.144Z" fill="#FFECCC"/>
</svg>
