<svg width="23" height="23" viewBox="0 0 23 23" fill="none" xmlns="http://www.w3.org/2000/svg">
<path fill-rule="evenodd" clip-rule="evenodd" d="M10.801 0.0130761C9.51159 0.145143 8.52778 0.372652 7.51374 0.773355C6.0966 1.33339 4.94409 2.07705 3.83116 3.14968C1.70741 5.19645 0.542734 7.77662 0.419115 10.7086C0.339371 12.6008 0.817969 14.6583 1.72521 16.3232C1.83407 16.5231 1.92316 16.7135 1.92312 16.7465C1.92312 16.7795 1.4904 18.0766 0.961535 19.6289C0.432711 21.1812 0 22.486 0 22.5285C0 22.6218 0.180419 22.7994 0.275101 22.7994C0.312536 22.7994 1.67333 22.3784 3.29903 21.8637C4.92472 21.3491 6.28359 20.928 6.3187 20.928C6.35381 20.928 6.61191 21.0366 6.89225 21.1692C7.80946 21.6033 8.95133 21.9442 10.063 22.116C10.786 22.2277 12.5153 22.2284 13.2385 22.1173C15.6951 21.7399 17.8946 20.6446 19.6129 18.943C20.6657 17.9005 21.5144 16.6368 22.0652 15.2915C22.4171 14.432 22.6443 13.583 22.8165 12.4844C22.8922 12.0008 22.8924 10.2816 22.8167 9.74418C22.4406 7.07445 21.2459 4.76719 19.317 2.98553C17.6305 1.42772 15.5855 0.456375 13.2385 0.0982248C12.7887 0.0296068 11.1864 -0.026357 10.801 0.0130761ZM13.0483 2.41257C15.6777 2.85203 17.9476 4.38213 19.3143 6.63641C19.8853 7.57812 20.3375 8.86244 20.487 9.96696C20.558 10.4913 20.559 11.7325 20.4888 12.2394C20.3702 13.0956 20.0131 14.2509 19.634 15.0041C18.7615 16.7379 17.1943 18.2561 15.4478 19.0595C14.2821 19.5957 13.2449 19.8427 11.9638 19.8894C10.2041 19.9535 8.56254 19.5355 7.07168 18.6439C6.85392 18.5136 6.6476 18.4217 6.57971 18.4246C6.51535 18.4273 5.80862 18.6376 5.00916 18.8918C4.20971 19.1461 3.55051 19.3507 3.5443 19.3463C3.53803 19.3421 3.74435 18.7125 4.00272 17.9474C4.26105 17.1822 4.47215 16.5023 4.47175 16.4363C4.4713 16.3642 4.35354 16.1388 4.17625 15.8708C3.3632 14.6418 2.8775 13.1866 2.77539 11.674C2.73294 11.0446 2.77002 10.1936 2.86247 9.67734C3.36875 6.84943 5.13318 4.50372 7.715 3.22605C8.67757 2.74973 9.64335 2.47896 10.9128 2.32947C11.2378 2.29119 12.6512 2.34622 13.0483 2.41257ZM8.16225 5.93303C7.46741 6.04228 7.15559 6.17136 6.82856 6.48518C6.03054 7.25089 5.80115 8.76058 6.28735 10.0474C6.74971 11.2713 8.30242 13.2847 9.58986 14.33C10.8403 15.3451 12.2703 16.0179 13.9094 16.3619C14.3441 16.4532 15.1443 16.4527 15.493 16.361C16.1599 16.1856 16.9626 15.6102 17.2231 15.1208C17.4597 14.6762 17.5692 13.7293 17.4176 13.4374C17.3594 13.3253 17.1765 13.2197 16.3107 12.7987C15.7402 12.5214 15.1392 12.2419 14.9751 12.1778C14.4273 11.9636 14.2907 12.0145 13.8098 12.6121C13.2357 13.3253 13.1332 13.4425 13.0837 13.4419C13.0581 13.4416 12.8807 13.3732 12.6893 13.29C11.9582 12.972 10.9367 12.1863 10.206 11.3799C9.8939 11.0354 9.39218 10.3776 9.39218 10.3128C9.39218 10.2912 9.52881 10.1162 9.69581 9.92397C10.1196 9.43624 10.2626 9.16329 10.2571 8.85303C10.2534 8.64611 10.1784 8.43451 9.77556 7.49404C9.51307 6.88138 9.2453 6.30352 9.1805 6.20991C8.97472 5.9128 8.72417 5.84467 8.16225 5.93303Z" fill="#FFECCC"/>
</svg>
