<svg width="23" height="23" viewBox="0 0 23 23" fill="none" xmlns="http://www.w3.org/2000/svg">
<path fill-rule="evenodd" clip-rule="evenodd" d="M15.1821 4.65588C19.1945 4.80165 20.051 4.95498 20.8072 5.66272C21.43 6.24561 21.6879 7.02272 21.8689 8.86091C21.9804 9.99351 21.9816 13.6181 21.8708 14.7935C21.7037 16.5659 21.5403 17.2395 21.1516 17.7571C20.6103 18.478 20.0728 18.7478 18.8786 18.8979C15.6669 19.3017 6.34736 19.2629 3.8636 18.8355C2.5898 18.6162 1.78341 17.8562 1.51178 16.6189C1.20048 15.2007 1.06438 12.2051 1.20667 9.904C1.37216 7.22769 1.56449 6.46232 2.25472 5.73202C2.84657 5.10584 3.40806 4.92982 5.27892 4.78411C7.57184 4.60542 12.1593 4.54609 15.1821 4.65588ZM9.48127 11.8924V15.0243L9.79629 14.8437C13.7995 12.5489 14.8847 11.9194 14.8847 11.8924C14.8847 11.8653 13.7995 11.2359 9.79629 8.94109L9.48127 8.76051V11.8924Z" fill="#FFFAF6"/>
<path fill-rule="evenodd" clip-rule="evenodd" d="M15.1821 4.65588C19.1945 4.80165 20.051 4.95498 20.8072 5.66272C21.43 6.24561 21.6879 7.02272 21.8689 8.86091C21.9804 9.99351 21.9816 13.6181 21.8708 14.7935C21.7037 16.5659 21.5403 17.2395 21.1516 17.7571C20.6103 18.478 20.0728 18.7478 18.8786 18.8979C15.6669 19.3017 6.34736 19.2629 3.8636 18.8355C2.5898 18.6162 1.78341 17.8562 1.51178 16.6189C1.20048 15.2007 1.06438 12.2051 1.20667 9.904C1.37216 7.22769 1.56449 6.46232 2.25472 5.73202C2.84657 5.10584 3.40806 4.92982 5.27892 4.78411C7.57184 4.60542 12.1593 4.54609 15.1821 4.65588ZM9.48127 11.8924V15.0243L9.79629 14.8437C13.7995 12.5489 14.8847 11.9194 14.8847 11.8924C14.8847 11.8653 13.7995 11.2359 9.79629 8.94109L9.48127 8.76051V11.8924Z" fill="#FFFAF6"/>
</svg>
