<?xml version="1.0" standalone="no"?>
<!DOCTYPE svg PUBLIC "-//W3C//DTD SVG 20010904//EN"
 "http://www.w3.org/TR/2001/REC-SVG-20010904/DTD/svg10.dtd">
<svg version="1.0" xmlns="http://www.w3.org/2000/svg"
 width="512.000000pt" height="512.000000pt" viewBox="0 0 512.000000 512.000000"
 preserveAspectRatio="xMidYMid meet">
<metadata>
Created by potrace 1.14, written by Peter Selinger 2001-2017
</metadata>
<g transform="translate(0.000000,512.000000) scale(0.100000,-0.100000)"
fill="#000000" stroke="none">
<path d="M0 2560 l0 -2560 2560 0 2560 0 0 2560 0 2560 -2560 0 -2560 0 0
-2560z m4880 0 l0 -2320 -2320 0 -2320 0 0 2320 0 2320 2320 0 2320 0 0 -2320z"/>
<path d="M1618 3913 c-10 -3 -18 -8 -18 -12 0 -10 67 -190 113 -305 l36 -88
-90 -247 c-50 -135 -110 -298 -134 -361 -24 -63 -93 -250 -153 -415 -61 -165
-145 -392 -188 -505 -42 -113 -87 -232 -99 -265 -88 -241 -156 -335 -288 -399
-31 -16 -58 -31 -58 -35 -1 -3 -2 -17 -3 -31 l-1 -25 370 -1 c204 -1 378 0
387 3 19 5 19 36 1 54 -6 6 -26 12 -44 15 -65 9 -164 43 -198 68 -18 14 -45
42 -59 63 -24 34 -27 50 -30 144 l-4 106 97 264 c53 145 100 273 105 284 8 19
243 657 300 815 45 125 111 287 124 305 16 22 31 -13 266 -620 34 -88 77 -198
95 -245 18 -47 66 -170 106 -275 39 -104 79 -210 89 -235 61 -162 142 -371
206 -533 41 -103 74 -191 74 -196 0 -13 39 -18 78 -10 19 4 35 9 36 11 2 1 56
107 121 233 64 127 163 318 218 425 56 107 117 226 137 264 20 38 41 71 46 73
11 4 34 -45 156 -326 127 -295 145 -365 117 -464 -21 -76 -101 -134 -206 -152
-44 -7 -55 -16 -60 -48 -3 -16 24 -17 490 -15 481 3 492 3 492 23 0 13 -19 30
-60 53 -147 82 -200 164 -360 557 -129 316 -265 645 -301 728 -19 43 -34 87
-34 97 0 11 29 75 64 142 35 68 105 204 156 303 235 457 271 517 363 608 52
51 94 77 142 87 27 5 30 9 30 45 l0 40 -306 3 -306 2 0 -41 c0 -44 2 -45 62
-54 64 -9 128 -46 147 -86 16 -32 17 -40 3 -92 -8 -32 -40 -112 -71 -180 -87
-192 -317 -657 -324 -657 -12 0 -50 89 -330 765 -61 149 -119 287 -128 308
l-16 38 -181 -2 c-191 -2 -205 -4 -205 -24 0 -11 164 -414 215 -530 7 -16 23
-55 35 -85 12 -30 28 -68 35 -85 8 -16 30 -70 50 -120 20 -49 43 -103 50 -120
23 -53 102 -246 145 -355 23 -58 48 -118 55 -135 46 -103 48 -90 -45 -273 -46
-92 -108 -211 -138 -266 -30 -54 -69 -126 -87 -160 -19 -33 -39 -61 -46 -61
-12 0 -44 71 -89 190 -45 121 -102 272 -110 290 -5 11 -37 92 -71 180 -33 88
-65 169 -69 180 -10 22 -182 468 -272 705 -22 58 -44 114 -48 125 -10 25 -91
235 -158 410 l-49 130 -179 1 c-99 1 -187 -1 -196 -3z"/>
<path d="M1507 2378 c-12 -28 -12 -34 -1 -41 15 -9 580 -11 594 -2 11 7 -6 56
-22 66 -6 4 -134 8 -284 8 l-274 2 -13 -33z"/>
</g>
</svg>
