<svg width="565" height="607" viewBox="0 0 565 607" fill="none" xmlns="http://www.w3.org/2000/svg">
<path d="M565 313.717C561.207 314.128 557.383 314.616 555 314.943L549.5 308.475L548 309.968C548.167 310.3 549 311.361 551 312.953C553 314.545 553.833 317.597 554 318.924H556V323.402C556 329.641 548.312 336.924 542.284 342.633C541.102 343.753 539.984 344.812 539 345.791C534.834 349.936 529.705 357.679 524.949 364.856L524.949 364.857C522.855 368.017 520.834 371.068 519 373.653C514.2 380.42 510 382.111 508.5 382.111C508.167 382.609 507.7 383.604 508.5 383.604C508.949 383.604 509.5 383.403 510.106 383.182C510.848 382.911 511.674 382.609 512.5 382.609C513.7 382.609 514.333 383.936 514.5 384.599C515 384.599 516.4 384.4 518 383.604C519.6 382.808 521.667 380.951 522.5 380.121H524.5C524.667 380.453 525.4 381.116 527 381.116C527.87 381.116 528.172 381.116 528.236 380.994C528.27 380.928 528.237 380.828 528.185 380.674C528.111 380.453 528 380.121 528 379.624C528 378.931 527.569 378.667 527.107 378.384C526.574 378.057 526 377.705 526 376.639C526 375.182 526.268 374.791 526.608 374.296C526.732 374.115 526.866 373.92 527 373.653C527.4 372.857 529.5 371.995 530.5 371.663C532.167 370.17 535.8 367.185 537 367.185C538.2 367.185 538.833 367.849 539 368.18L542 372.658L543.5 373.653C543.667 372.326 544.2 369.175 545 367.185C545.346 366.325 545.87 365.525 546.451 364.64C547.549 362.965 548.846 360.988 549.5 357.732C550.376 353.374 552.02 352.451 554.094 351.286C554.387 351.121 554.69 350.952 555 350.766C557 349.572 557.833 348.61 558 348.279C558.8 350.269 562 350.766 563.5 350.766V352.757H562V353.752H565V348.279C563.5 348.279 560.5 347.781 560 347.284C559.605 346.89 560.147 346.186 561.872 343.944C562.33 343.349 562.871 342.646 563.5 341.811C564.01 341.134 564.514 340.475 565 339.847V313.717Z" fill="black"/>
<path d="M565 430.327C564.777 430.512 564.606 430.712 564.5 430.87L554.5 453.26C554.333 453.592 554 455.051 554 458.235C554 462.216 558.5 468.186 562 470.674C562.333 471.005 562.5 472.465 560.5 475.649C558.5 478.833 553 484.605 550.5 487.093L550 486.098H548C547.667 486.429 547.2 487.292 548 488.088C549 489.083 548.5 490.575 547.5 491.073L536.5 481.122H535V482.615L540 485.6L537 490.078L538 490.575L541 486.595L546.5 491.57C545.5 492.4 543.3 494.257 542.5 495.053C541.7 495.849 540.5 496.048 540 496.048L527 486.098L525.5 487.59L516 476.147C517.667 473.825 521 468.087 521 463.708C521 460.929 520.484 459.561 520.108 458.562C519.743 457.594 519.508 456.972 520 455.748C520.135 455.412 520.306 455.013 520.502 454.558L520.504 454.553L520.505 454.551C521.759 451.631 524 446.412 524 440.821C524 434.353 523.5 433.856 522 433.856C520.5 433.856 520 436.841 520 438.334C517.834 438.665 512.5 438.632 508.5 435.846C503.5 432.363 495 425.895 491 422.412C489.574 421.17 487.13 419.232 484.348 417.027L484.346 417.025C479.329 413.046 473.216 408.199 470 404.998C469.139 404.141 468.188 403.269 467.204 402.366L467.203 402.365C462.479 398.032 457 393.006 457 385.594V379.624L458 378.629L462.5 382.609V381.116L459 377.634L470 366.19L473.5 369.673L474.5 368.18L472 365.693C473.334 365.527 476.2 365.195 477 365.195C477.8 365.195 478 360.883 478 358.727H479V357.732H480V359.722H481C481.334 359.39 482 358.23 482 356.239C482 353.752 481 352.259 480 352.259C479.414 352.259 479 352.43 478.657 352.571C478.414 352.671 478.207 352.757 478 352.757C477.5 352.757 475 350.269 474 348.776C473 347.284 472.5 346.289 473 345.791C473.176 345.616 473.597 345.442 474.07 345.246C474.947 344.883 476 344.447 476 343.801C476 342.806 475 341.811 474 341.811C473.578 341.811 473.245 342.697 472.888 343.647C472.4 344.947 471.867 346.366 471 345.791C469.8 344.995 464.834 342.142 462.5 340.816C462.667 339.489 462.4 336.835 460 336.835C457.6 336.835 457 338.825 457 339.82H453C453.667 343.137 454.9 350.169 454.5 351.761L449.5 347.284L448.5 348.776L453.5 352.757L444 365.693L441 362.707L440 363.702L443 366.688C442.167 368.014 439.1 370.668 433.5 370.668C427.9 370.668 413.5 358.395 407 352.259C406 351.43 404 349.075 404 346.289C404 343.502 406 334.845 407 330.865L413.5 329.87V327.88L407 328.875C405.834 326.387 403.3 320.317 402.5 315.939C401.5 310.466 401 307.48 401 303.002C402.667 302.339 406.2 301.012 407 301.012V300.017C405 300.515 400.8 301.609 400 302.007C399.2 302.405 397.667 302.173 397 302.007C395.5 304.163 391.5 309.769 387.5 314.943C386.312 316.48 385.237 317.848 384.269 319.081C381.16 323.038 379.144 325.604 378 327.88H373.5C372.834 327.05 371.4 325.392 371 325.392V320.914H367C367 321.246 366.8 321.909 366 321.909C365 321.909 363.5 320.914 362.5 319.919C361.7 319.123 358.5 318.924 357 318.924C356.667 318.758 356 318.227 356 317.431C356 316.436 356 315.939 355 315.939C354 315.939 353.5 315.939 353 316.436L350.5 318.924H346.5C345.5 319.255 343.3 319.919 342.5 319.919C342.086 319.919 341.672 319.748 341.186 319.548C340.5 319.265 339.672 318.924 338.5 318.924C337.428 318.924 337.075 319.21 336.746 319.475C336.462 319.705 336.196 319.919 335.5 319.919C334.619 319.919 333.049 317.86 331.599 315.959L331.585 315.941L331.287 315.551C331.171 315.399 331.056 315.249 330.943 315.103C331.803 314.515 333.561 313.487 334.5 312.953L335 315.939V316.933H335.5L336.5 315.939H338V314.943H336V313.451L335.5 312.456C336 312.124 337.2 311.361 338 310.963C338.8 310.565 341.333 309.139 342.5 308.475V311.958H341L342.5 313.451V314.943H344.5L346 312.953V308.973L344.5 307.978C344.9 307.58 346 307.149 346.5 306.983L350 310.178V312.953H352V310.963L351 310.178L350 308.475V305.988C350.8 305.192 352 304.993 352.5 304.993L353 306.485L353.5 306.983L354 307.978H355V308.973H354V310.963H356V311.958H358V310.963H357V310.178L358 309.968V308.973H357V307.48L355 306.983V305.988H357V304.993H355L354.5 303.998C355.7 303.6 357.333 303.168 358 303.002V304.993H360V305.988H359V307.978H360V308.973H361V309.968H360V311.958H362V312.953H361V313.948H363V312.953H365V311.958H364V308.973H363V307.978H362V304.993H361V303.998H362V303.002H361V301.51C361.8 301.112 363.333 301.012 364 301.012V302.007H366V303.998H365V304.993H366V305.988H367V306.983H366V307.978H367V309.968H366V310.963H367V311.958H368V312.953H367V313.948H368V314.943H369V315.939H368V316.934H371V315.939H372V314.943H371V313.948H370V312.953H371V310.963H369V309.968H370V307.978H368V306.983H369V305.988H368V304.993H369V303.002H367V302.007H369V301.012H367V300.017C367.8 299.619 370.667 299.188 372 299.022V300.017H373V301.012H372V302.007H373V303.002H374V303.998H372V304.993H374V305.988H373V306.983H374V307.978H375V308.973H374V310.963H375.5V311.958H374V312.953H375V313.948H376V314.943H375V315.939H377V316.934H375V317.928H378L379 316.934V315.939H378V314.943H379V312.953H377V311.958H379V310.963H377V309.968H378V307.978H376V306.983H378V305.988H375.5V304.993H377V303.002H375V301.012H375.5V300.017H374L373.5 298.027L380 296.534V297.032H379V298.027H380V299.022H379V300.017H380V301.012H381V302.007H379V303.002H381V303.998H380V305.988H382V306.983H381V307.978H382V308.973H381V309.968H382V310.963H381V311.958H383V310.963H386V309.968H383V309.47H385V307.978H383V305.988H384V304.993H383V303.998H385V303.002H383L382 302.007V301.012H383V300.017H382V299.022H383V298.027H382V297.53L382.5 297.032V296.037L388 295.042V296.037H386V297.032H388V298.027H386V299.022H388V300.017H387V302.007H390V299.022H392V298.027H389V297.032H392V296.037H389V295.042H391V292.554H389.5L388 294.047C383.167 294.876 370.5 297.43 358.5 301.012C347.179 304.392 335.562 310.989 330.365 314.371C329.832 313.714 329.359 313.191 329 312.953C327.5 311.958 324 309.47 323 307.978C322.334 307.812 323.1 306.386 331.5 302.007C342 296.534 354 292.057 367 288.574C380 285.091 398 282.106 418.5 282.106C432.719 282.106 440.684 283.542 445.564 284.422C447.72 284.811 449.274 285.091 450.5 285.091C454.5 285.091 460 280.613 460 275.14C460 269.667 450 268.175 435.5 268.175C421 268.175 393.5 270.662 388 271.657C386.813 271.872 385.579 272.11 384.329 272.351C379.787 273.227 375.029 274.145 371.5 274.145C367 274.145 361.5 276.135 356 278.125C350.5 280.116 335 287.081 329 290.066C324.2 292.455 314.667 298.69 310.5 301.51L307 298.525C312.167 294.544 324.5 285.29 332.5 280.116C342.5 273.648 362.5 262.204 372.5 257.726C382.5 253.248 397.5 247.775 410.5 244.79C423.5 241.805 435 239.815 444.5 238.82C454 237.825 466 235.834 466 228.869C466 221.903 463 218.42 457 218.42C451 218.42 426.5 221.903 415 225.386C403.5 228.869 385.5 234.839 375.5 239.815C365.5 244.79 343 256.731 329.5 265.687C316 274.643 302 286.584 298 290.066L294.5 286.086C294.833 285.423 295.9 283.598 297.5 281.608L297.973 281.019C301.211 276.973 315.019 259.726 323.5 251.756C323.902 251.378 324.3 251.003 324.697 250.629L325.557 249.817C333.706 242.13 341.232 235.03 356 225.386C357.617 224.33 359.198 223.295 360.748 222.279L360.816 222.235C374.574 213.224 385.884 205.816 398 200.011C411.5 193.543 427.5 188.07 441 184.588C454.5 181.105 457.5 178.12 457.5 173.642C457.5 169.164 452 167.671 447.5 167.671C443 167.671 430 171.652 420 175.134C419.577 175.282 419.143 175.433 418.699 175.587L418.516 175.651C408.473 179.144 393.495 184.354 383.5 189.563C373.44 194.807 363.379 201.878 355.078 207.712L354 208.47C345.5 214.44 337 221.406 327 230.361C325.474 231.728 324.076 232.968 322.776 234.12L322.769 234.126C315.554 240.522 311.353 244.245 305 252.253C302.726 255.119 300.269 258.076 297.851 260.986L297.843 260.995C292.287 267.681 286.938 274.118 284.5 278.623C283.667 278.789 281.8 279.021 281 278.623C280 278.125 280 276.633 280.5 275.14C281 273.648 293 247.278 300 236.83C307 226.381 319.5 209.465 327.5 201.007C335.5 192.548 351 177.622 365 168.666C379 159.711 392.5 151.252 406 145.282C410.5 143.292 415.667 141.578 420.556 139.956C430.334 136.713 439 133.839 439 129.858C439 123.888 430 121.898 426 121.898C422 121.898 413 124.385 393.5 135.331C374 146.277 367 150.257 362 153.243C357 156.228 350 160.706 335.5 173.144C321 185.583 317.5 190.061 308.5 202.002L308.496 202.007C299.499 213.945 294.998 219.916 284.5 236.83C276.1 250.363 271.667 261.707 270.5 265.687C270.167 266.184 269.2 267.18 268 267.18C266.5 267.18 265.5 265.189 265.5 262.204C265.5 259.219 273 229.366 283.5 208.47C294 187.573 304 167.671 314.5 154.735C325 141.799 339.5 125.38 349.5 116.922C353.076 113.898 357.675 111 362.108 108.208C370.072 103.19 377.5 98.5101 377.5 94.0352C377.5 87.0697 375.5 82.0943 370 82.0943C364.5 82.0943 359.5 86.0746 353.5 92.0451C351.776 93.7612 349.349 96.135 346.588 98.8357C339.743 105.531 330.844 114.235 325.5 119.907C318 127.868 307 141.302 298 153.243C289.782 164.146 285.316 173.39 279.273 185.9C278.698 187.09 278.108 188.31 277.5 189.563C270.5 203.992 267.5 210.46 262 229.366C260.919 233.082 259.993 236.356 259.183 239.217L259.182 239.223C255.872 250.92 254.509 255.736 252.5 255.736C250 255.736 250 253.746 250 248.77C250 243.795 250 225.386 256 198.519C260.876 176.685 265.422 166.68 270.174 156.22C271.27 153.809 272.376 151.374 273.5 148.765C278.819 136.415 280.995 133.449 285.948 126.696L285.954 126.688L285.959 126.681C286.59 125.82 287.267 124.898 288 123.888C289.902 121.268 292.488 118.009 295.195 114.598C301.743 106.348 309 97.2032 309 94.0352C309 89.5574 302.5 82.0943 296 82.0943C289.5 82.0943 286 86.0746 283 90.5525C280 95.0303 273 108.961 264 127.37C255 145.78 248.5 167.671 245 180.11C241.5 192.548 237 224.391 237 240.81C235.5 240.81 232.2 240.213 231 237.825C229.5 234.839 225 214.44 225 188.07C225 169.397 228.761 147.23 230.957 134.291C231.861 128.96 232.5 125.194 232.5 123.888C232.5 119.41 230.5 115.43 224 115.43C217.5 115.43 211.5 149.262 211.5 168.666C211.5 188.07 214 213.445 216.5 219.913C216 220.245 214.8 220.908 214 220.908C213.2 220.908 210.334 219.913 209 219.416C206.5 215.104 200.4 202.4 196 186.08C190.865 167.034 190.96 158.831 190.995 155.802C190.998 155.587 191 155.398 191 155.233C191 152.745 189 148.765 183.5 148.765C178 148.765 176 154.238 176 158.218C176 160.05 176.636 162.304 177.322 164.736C178.126 167.589 179 170.688 179 173.642C179 179.115 175 185.085 170 185.085C167.361 185.085 164.861 183.838 162.5 182.659C160.389 181.606 158.389 180.607 156.5 180.607C154.266 180.607 154.216 180.918 154.171 181.192C154.135 181.408 154.104 181.602 153 181.602C152 181.105 149.8 180.408 149 181.602C148.863 181.807 148.725 182.031 148.583 182.263C147.688 183.722 146.588 185.514 144 185.085V186.08H141V184.588H138.5V186.08H136V184.588H133V186.08H130.5V184.588H127V186.08H125V184.588H122V186.08H120L119.5 184.588L117 185.085L116.5 186.08L115 186.578L114 185.085L111 186.578L112 187.573L110 188.07L109 187.075L106 189.066V190.558H103L101.5 192.548V193.543L100.5 195.036L99.0001 194.539L97.5001 196.031V197.524H95.5001L94.0001 198.519V200.011H89.5001L89.0001 202.002L88.0001 201.504H86.0001L84.5001 203.494L83.0001 203.992L81.0001 203.494L80.0001 204.987L77.0001 205.484L75.0001 206.48C74.8334 205.816 74.8001 204.191 76.0001 202.997C77.5001 201.504 81.0001 197.026 84.5001 191.553C87.3001 187.175 91.6667 182.432 93.5 180.607L98.5 185.085L99 184.09L94.0001 179.612C95.6667 177.125 99.9999 170.955 104 166.179C106.85 162.776 109.05 160.504 110.6 158.904L110.601 158.903C111.77 157.695 112.57 156.87 113 156.228C113.302 155.776 113.651 155.28 114.031 154.737L114.032 154.736C114.908 153.485 115.954 151.992 117 150.257C118.5 147.77 123.5 141.799 127 138.316C130.5 134.834 132 134.336 133 134.336C133.8 134.336 133.333 131.351 133 129.858C134 128.034 138.2 122.395 147 114.434C155.8 106.474 158.667 103.489 159 102.991C161 102.991 165.6 102.792 168 101.996C170.4 101.2 181 94.0352 186 90.5525C186 90.3866 186.3 90.0549 187.5 90.0549C188.25 90.0549 188.5 90.1793 188.75 90.3037C189 90.4281 189.25 90.5525 190 90.5525C191.5 90.5525 194.5 87.5672 195 86.5721C195.171 86.2315 195.225 85.8908 195.282 85.5302C195.392 84.8374 195.513 84.071 196.5 83.0893C197.5 82.0943 197.833 81.3203 198.389 80.0304L198.389 80.0292C198.667 79.3846 199 78.6105 199.5 77.6164C201 74.6311 203 73.6361 206.5 72.641C207.697 72.3008 208.893 71.8443 210.03 71.4107C212.218 70.576 214.184 69.8258 215.5 70.1533C216.218 70.3318 216.678 70.6386 217.158 70.9585C218.015 71.53 218.936 72.1434 221.5 72.1434C225.5 72.1434 231.5 70.1533 237.5 65.6754C241.459 62.7206 244.112 59.3324 246.321 56.5117C247.459 55.0578 248.48 53.7547 249.5 52.7393C252.5 49.7541 258.5 43.7836 267.5 40.3008C276.5 36.818 299 30.35 325.5 30.35C352 30.35 373 31.3451 388 35.823C399.801 39.3459 416.245 45.9487 424.669 49.3313C426.953 50.2481 428.647 50.9284 429.5 51.2467C431.205 51.8829 434.091 53.9654 437.112 56.1457C441.179 59.0806 445.492 62.1926 447.5 62.1926C451 62.1926 452 61.6951 454.5 59.2074C456.5 57.2172 462.333 51.7443 465 49.2566C467.667 51.2467 474.3 56.6202 479.5 62.1926L467.5 71.6459C466.667 72.641 465 75.2282 465 77.6164C465 80.2395 467.316 82.4784 469.235 84.3332C469.5 84.5892 469.757 84.8381 470 85.0795C472 87.0697 474.5 90.0549 476 92.0451C477.2 93.6372 482.167 101.996 484.5 105.976L480.5 108.961H477L479.5 111.947H480.5V110.454L486 106.474C489.667 112.776 498 127.47 502 135.829L495.5 138.316L495 140.804H492.5V143.789H495L495.5 141.799H497V143.789L499 144.287V142.794H501L504 140.804C506.167 145.282 511.3 158.815 514.5 177.125V178.12H509.5V179.115H506.5L505.5 180.11H504V181.105L504.5 181.602V183.095L506.5 185.085H509.5L510 183.593H513.5L514 182.598H515.5C515.667 190.226 516 208.47 516 220.411C516 229.554 513.936 239.444 512.337 247.108L512.336 247.11L512.336 247.113L512.336 247.114L512.335 247.117C511.325 251.959 510.5 255.912 510.5 258.224C510.5 264.194 515.5 277.13 527 277.13C530 276.964 536 277.727 536 282.106C536 287.579 530.5 293.052 525.5 293.052C520.5 293.052 517.5 291.061 517 289.071C516.5 287.081 515 287.081 515 287.081C514.5 287.413 513.5 288.275 513.5 289.071C513.5 290.066 518 296.037 525 296.037C524.677 296.032 524.865 298.025 525 299.022H520V300.017H526V296.037C530 295.705 538.3 292.654 539.5 283.101C539.818 280.57 540.293 277.346 540.845 273.605L540.845 273.603C542.895 259.693 546 238.627 546 219.416C546 195.036 543 171.652 539.5 157.223C536 142.794 526.5 117.917 519 103.986C511.5 90.0549 496 70.6508 484.5 59.2074C473 47.7639 459.5 37.3156 447.5 30.35C435.5 23.3844 415.5 14.4287 391.5 7.46311C367.5 0.497541 345 0 334.5 0C324 0 300 1.99016 285.5 4.97541C271 7.96066 251 12.9361 230 20.8967C209 28.8574 189 40.3008 171.5 51.7443C154 63.1877 136.5 77.1189 117.5 94.5328C101.395 109.293 98.2227 112.972 89.7132 122.84L89.7122 122.842C88.1826 124.615 86.4806 126.589 84.5 128.863C72.5097 142.63 62.6462 158.09 52.9479 173.291L52.8165 173.497C52.0437 174.708 51.2718 175.918 50.5 177.125C40 193.543 33 207.972 21.5 235.337C10.6801 261.083 6.49936 284.627 3.96054 298.925L3.9546 298.958C3.79715 299.845 3.64602 300.696 3.5 301.51C1 315.441 0 334.348 0 346.289C0 358.23 1 391.067 7.5 413.954C14 436.841 21.5 455.25 27.5 466.196C33.5 477.142 44 490.575 51.5 499.034C57.5 505.8 67 514.457 71 517.94C71.1667 519.267 71.7 522.12 72.5 522.916C73.5 523.911 104 545.802 110.5 548.788C117 551.773 142 562.719 158 565.704C174 568.689 195.5 571.675 207 571.675C218.5 571.675 251.5 568.689 262 566.202C272.5 563.714 301.5 555.256 312 551.275C322.5 547.295 331 542.32 331 533.861C331 525.403 322.5 521.423 320.5 521.423V523.911C321.833 524.077 324.7 524.906 325.5 526.896C326.3 528.886 326.167 530.379 326 530.876L327 531.374V533.861H326V532.369C324.833 531.871 322.3 530.876 321.5 530.876C320.7 530.876 320.5 530.213 320.5 529.881V527.891H319V528.886H317V529.881H319C319.333 530.047 320 530.578 320 531.374C320 532.369 319 533.861 318 533.861C317.2 533.861 316.667 533.198 316.5 532.866L315.5 533.861V535.852L316.5 536.349V537.842H319V536.349L320 537.344V538.339C320.167 538.008 320.6 537.643 321 538.837C321.4 540.031 321.167 541.325 321 541.822L322 542.32V543.315C320.333 544.31 316.3 546.599 313.5 547.793C312.333 546.798 310 544.31 310 542.32C310 539.832 309.5 535.852 305.5 532.369C301.5 528.886 297.5 526.896 294 526.896C293.212 526.896 290.678 527.601 286.75 528.695L286.748 528.695C273.219 532.461 243.16 540.827 211 540.827C169.5 540.827 152.5 534.857 128 522.916C103.5 510.975 95 505.502 88.5 499.034C83.7721 494.329 82.7477 493.31 81.5784 493.103C81.2552 493.046 80.9209 493.052 80.4943 493.058C80.3427 493.061 80.1786 493.063 80 493.063C77.5 493.063 74.5 496.546 74 500.526C73.6 503.711 72.8333 510.477 72.5 513.462C68 509.648 58.2 500.825 55 496.048C56.6667 489.414 60 475.152 60 471.171C60 467.479 55.3186 459.128 52.6998 454.457L52.699 454.455C51.7895 452.833 51.1289 451.654 51 451.27C50.8045 450.686 50.609 449.646 50.3836 448.447C50.0326 446.58 49.609 444.327 49 442.811C48.9263 442.628 48.7522 442.25 48.4927 441.687C45.2319 434.612 28.5 398.31 28.5 351.761C28.5 301.51 46 255.239 52.5 240.312C59 225.386 63.5 217.923 66 214.44H69.5L70 212.948H71.5L72.5 212.45H73.5L74 212.948L75.0001 213.445L75.5 211.952H77.0001V212.948L78.5 212.45H80.0001V210.957L81.5 210.46L82 211.455L85 210.957L85.5 208.967L87 208.47V208.967H90V207.475H92.5V207.972L95.5001 206.977V205.484H97L100.5 203.494V202.499H102L104 201.007L103.5 200.011L105.5 198.519H106.5L108 197.026V196.031L109 195.534L110 196.031L112 195.534V193.543H114V194.539L116.5 193.543V192.548H119V193.543L122 193.046V192.051L124.5 191.553V192.548H127V191.553H129V192.548H132V191.553H134V192.548H137.5V191.553H139.5V192.548H142.5V191.553H144.5V192.548H148C150.333 195.202 155 201.504 155 205.484C155 210.46 149.5 214.44 147 214.44H133V213.445C129 213.279 121 214.739 121 221.903C121 230.505 128.841 230.386 130.347 230.363L130.429 230.362C130.456 230.362 130.479 230.361 130.5 230.361C130.949 230.361 131.096 230.16 131.257 229.939C131.455 229.668 131.674 229.366 132.5 229.366C132.925 229.366 133.31 229.406 133.643 229.441C134.486 229.528 135 229.582 135 228.869C135 228.073 143.667 228.205 148 228.371C156.333 228.703 174.5 229.665 180.5 230.859C181.641 231.086 182.839 231.278 184.051 231.473C190.81 232.559 198 233.714 198 241.307C188.667 241.639 168.1 242.7 160.5 244.293C159.263 244.552 158.034 244.803 156.793 245.056C148.503 246.748 139.655 248.553 124 253.746C106 259.716 96 263.697 96 270.662C96 277.239 102.24 277.163 104.62 277.134C104.761 277.132 104.888 277.13 105 277.13C107 277.13 113.5 274.643 117 272.652C120.5 270.662 141.5 261.707 158.5 258.224C175.5 254.741 184 254.243 191.5 254.243H217.5C218.333 254.243 220 254.94 220 257.726C220 258.39 219.8 259.816 219 260.214C218.609 260.408 216.159 261.058 212.663 261.985L212.661 261.986C207.206 263.433 199.203 265.555 192.5 267.677C181.5 271.16 162.5 279.12 151 285.091C142.548 289.479 137.337 293.061 131 297.416L130.998 297.418L130.997 297.419L130.99 297.424C128.707 298.992 126.279 300.662 123.5 302.505C113 309.47 105 314.943 98 320.416C96.2083 321.817 94.4821 323.12 92.8633 324.342C88.1578 327.894 84.3601 330.761 82.5 333.352C82.2046 333.764 81.9022 334.176 81.5985 334.589C79.3329 337.672 77 340.847 77 344.796C77 349.274 84 355.742 89 355.742C94 355.742 97 353.254 98 352.259C99 351.264 111.5 336.835 113 334.845C114.5 332.855 124.5 321.909 131 316.436C137.5 310.963 152.5 301.012 163 295.539C173.5 290.066 189 282.106 200.5 278.623C201.72 278.253 203.025 277.856 204.388 277.44C215.874 273.94 231.531 269.17 236 269.17C240 269.17 240.333 271.492 240 272.652C239.333 273.316 237.6 274.842 236 275.638C234 276.633 225 281.111 216.5 285.091C208 289.071 194 296.534 183 304.495C172 312.456 166 317.431 157 326.387C150.412 332.943 146.771 337.099 142.154 342.369L142.152 342.372C140.463 344.3 138.643 346.378 136.5 348.776C131.517 354.354 125.176 363.214 120.015 370.426C116.89 374.792 114.197 378.555 112.5 380.619C109.5 384.267 105.833 388.58 102.981 391.933C101.556 393.61 100.333 395.048 99.5 396.043C97 399.028 88 412.959 88 415.944C88 418.93 92 425.398 98.5 425.398C105 425.398 109 423.407 110.5 418.432C111.469 415.218 111.603 413.872 111.712 412.786C111.771 412.191 111.823 411.673 112 410.969C112.25 409.974 113.75 408.357 115.25 406.74C116.75 405.123 118.25 403.506 118.5 402.511C118.651 401.908 118.711 401.26 118.776 400.552C118.926 398.923 119.106 396.978 120.5 394.55C120.967 393.736 121.571 392.651 122.242 391.446L122.246 391.437C124.443 387.487 127.351 382.259 128.5 381.116C128.973 380.646 129.446 380.373 129.982 380.064C131.145 379.393 132.604 378.552 135 375.146C138.5 370.17 148.5 356.239 152.5 351.761C156.5 347.284 169 334.348 177.5 327.88C179.021 326.722 180.557 325.549 182.119 324.357L182.12 324.357L182.124 324.353L182.129 324.349C189.292 318.882 196.972 313.018 206 306.485C217 298.525 224.5 294.544 234 290.066C243.5 285.589 250 282.603 251.5 282.603C253 282.603 254 284.096 254 284.593C254 284.991 254.333 285.754 254.5 286.086C252.167 287.247 246.1 290.663 240.5 295.042C233.5 300.515 220.5 311.461 212 319.919C203.5 328.377 197 335.343 188.5 345.791C181.913 353.888 176.227 364.077 170.278 374.736C168.55 377.831 166.8 380.967 165 384.102C157 398.033 151 412.461 146.5 426.393C142 440.324 139.5 449.777 139.5 455.748C139.5 461.718 141.5 477.142 147 477.142C152.5 477.142 155 469.181 155 464.703C155 461.941 157.092 454.637 159.048 447.81L159.048 447.809C160.263 443.568 161.425 439.51 162 436.841C163.5 429.875 171 407.984 175.5 397.535C180 387.087 188 371.166 195 361.712C202 352.259 211 340.318 219 331.86C227 323.402 239.5 311.461 247 305.988C254.5 300.515 262 295.539 264.5 295.042C265.833 295.539 268.6 296.833 269 298.027C268.767 297.629 268.903 298.525 269 299.022C265.5 301.51 256.7 308.774 249.5 317.929C240.5 329.372 239.5 330.865 231.5 344.298C227.051 351.77 225.231 355.24 223.803 357.961L223.803 357.962C222.664 360.132 221.775 361.827 220 364.698C218.138 367.708 217.251 369.21 216.633 370.256C215.924 371.457 215.569 372.058 214.5 373.653C213.314 375.424 212.48 377.544 211.058 381.156C210.083 383.634 208.831 386.815 207 391.067C206.2 392.925 205.495 394.515 204.865 395.935L204.864 395.937C201.951 402.507 200.644 405.452 199 414.452C197.867 420.654 197.376 424.779 196.981 428.096C196.679 430.631 196.433 432.695 196 434.851C195.706 436.316 195.194 437.695 194.607 439.279C193.199 443.076 191.353 448.055 191 458.235C190.6 469.778 190.5 474.986 190.5 476.147C190.333 480.127 191.2 488.088 196 488.088C202 488.088 204 479.63 204 475.649C204 471.669 204 455.25 206 447.787C206.64 445.398 207.28 443.468 207.855 441.736C209.075 438.056 210 435.268 210 430.87C210 424.402 216 402.511 218.5 398.033C219.694 395.894 221.344 391.94 222.96 388.067L222.961 388.064L222.962 388.062C224.729 383.827 226.456 379.69 227.5 378.131C228.325 376.9 229.235 375.838 230.09 374.84C231.307 373.42 232.413 372.129 233 370.668C233.386 369.708 233.623 368.896 233.884 368.003C234.298 366.583 234.772 364.959 236 362.21C237.333 359.225 240.444 354.471 243.555 349.716L243.557 349.714L243.558 349.712C245.113 347.337 246.667 344.961 248 342.806C250.447 338.849 254.39 333.776 258.228 328.839C260.664 325.704 263.058 322.624 265 319.919C270 312.953 276.5 305.988 278 305.988C279.244 305.988 280.144 307.014 280.7 307.648C280.815 307.779 280.915 307.893 281 307.978C281.5 308.475 281 310.466 278.5 314.943C278.33 315.248 278.153 315.564 277.97 315.891L277.613 316.527C275.111 320.988 271.556 327.327 268 334.845C267.492 335.919 266.992 336.97 266.5 338.003C263.119 345.105 260.119 351.406 257.5 359.225C255.39 365.524 253.775 372.069 252.654 376.609L252.654 376.611L252.652 376.616C252.18 378.528 251.796 380.084 251.5 381.116C251.351 381.636 251.213 382.123 251.081 382.587C250.329 385.237 249.776 387.184 248.5 390.57C247.484 393.265 247.156 397.557 246.895 400.974C246.771 402.604 246.661 404.034 246.5 404.998C246.427 405.432 246.228 406.066 245.94 406.981C244.247 412.358 239.5 427.439 239.5 468.684C239 474.157 240.3 485.102 249.5 485.102C258.7 485.102 259.667 477.805 259 474.157C258.833 474.157 258.4 471.072 258 458.733C257.5 443.309 258 423.905 258.5 417.934C259 411.964 261.5 393.057 265.5 381.116C266.782 377.29 267.91 373.361 269.048 369.396L269.048 369.394C271.462 360.985 273.923 352.412 278 344.298C280.17 339.98 282.471 335.335 284.571 331.095L284.586 331.067L284.586 331.065C288.287 323.596 291.363 317.388 292 316.436C293 314.943 294 318.426 294 319.421C294 320.416 293 323.899 291 328.875C289 333.85 282.5 356.239 281 365.195C279.5 374.151 279 395.545 279 400.52C279 405.496 280 417.934 281 423.905C282 429.875 286.5 450.772 288 457.24C288.129 457.797 288.254 458.361 288.38 458.927C289.717 464.937 291.102 471.171 297.5 471.171C304.5 471.171 305 462.713 305 460.723C305 459.902 303.978 456.877 302.637 452.909C300.729 447.261 298.175 439.7 297 433.856C295 423.905 293 406.491 293 397.535C293 395.288 292.969 392.979 292.937 390.678C292.844 383.806 292.751 377.006 293.5 372.161L293.658 371.135L293.658 371.133L293.658 371.132L293.659 371.131C294.749 364.043 297.173 348.286 300.5 338.825C304 328.875 305 327.88 305.5 327.88C306 327.88 311.5 329.372 311.5 330.367C311.5 331.163 311.167 332.689 311 333.352C310.667 333.187 310 333.253 310 334.845C310 336.437 311 337.167 311.5 337.333L311 338.825C308.333 345.128 303 362.409 303 381.116V401.018H304V398.53H311V397.535H304V390.57H319V389.575H304V383.604H324.5V382.609H304C304 381.116 304.1 377.634 304.5 375.643L322 376.639V375.643L304.5 374.151C304.667 372.492 305 369.076 305 368.678L317 369.673V368.678L305 367.185L306 362.707L315 363.702V362.707L306 361.712C306.167 360.717 306.6 358.528 307 357.732L315 358.727V357.732L307 356.239C307.333 355.078 308.1 352.558 308.5 351.761L313 352.757V351.761L308.5 350.269L309 347.781L315 348.776V347.781L309.5 346.786C309.833 345.459 310.6 342.806 311 342.806C311.4 342.806 313.833 343.469 315 343.801V342.806L311 341.811L313 337.83L317 339.82C318.306 340.47 318.759 340.696 318.916 341.051C319 341.24 319 341.465 319 341.811C319 342.223 318.828 342.379 318.627 342.562C318.343 342.82 318 343.133 318 344.298C318 345.293 318.5 345.791 319 346.289C319.5 346.786 320 347.284 320 348.279V349.274H319V354.747H320V357.732H318V361.712H321C321.5 363.537 323.2 367.882 326 370.668V372.658H325V374.648H326V375.643H329V374.648C329.167 374.814 330 375.444 332 376.639C334.115 377.901 334.083 378.452 334.023 379.495C334.012 379.685 334 379.891 334 380.121C334 380.52 334 380.813 333.943 381.094C333.785 381.863 333.198 382.545 331 385.097C328.6 387.883 317.333 399.525 312 404.998V412.461H311V414.452H314V408.979C315.5 408.315 319.3 406.989 322.5 406.989C325.7 406.989 327.833 407.984 328.5 408.481H340V422.412H341C340.833 420.754 340.9 417.437 342.5 417.437H348C349.667 417.603 354 418.233 358 419.427C363 420.92 373.5 425.398 378 428.383C380.738 430.199 385.143 434.042 390.199 438.454L390.203 438.457L390.206 438.461C393.458 441.298 396.979 444.37 400.5 447.289C407.7 453.26 449.167 488.254 469 505.004C469.333 505.833 469.9 507.691 469.5 508.487C469.1 509.283 465.667 510.145 464 510.477L463 511.97C466.833 510.975 474.9 508.686 476.5 507.492C478.5 505.999 487.5 500.029 489 499.034C490.2 498.238 490.833 499.034 491 499.531C491.333 499.863 492 500.626 492 501.024C492 501.422 491.333 502.185 491 502.516V504.507C491.667 503.677 493.1 501.919 493.5 501.521C493.9 501.123 493.667 500.029 493.5 499.531C493 499.531 491.8 499.233 491 498.039C494.333 497.375 501.7 495.053 504.5 491.073L517 496.546L512.5 503.014L519 509.482C519 512.633 518.9 519.532 518.5 521.92C518 524.906 511.5 538.837 500.5 552.768C491.7 563.913 489.167 567.363 489 567.694L482 562.221V560.729H480V562.719H481.5L488 568.689C484.833 572.504 477.8 581.128 475 585.108C471.5 590.084 468 595.059 464.5 598.044C461.73 600.406 459.274 603.392 456.387 607H565V470.213C561.444 467.744 557 463.211 557 458.235C557 453.647 561.331 444.456 565 437.661V430.327Z" fill="black"/>
<path d="M565 454.255H563L562.5 455.25L560 457.738V459.728L562 462.216H564V460.225L565 459.728V454.255Z" fill="black"/>
<path d="M339.838 607H269.764L306.5 590.084L312.5 605.01L319 602.522C316 596.22 310 583.218 310 581.625C310 580.033 310.333 576.982 310.5 575.655L321 565.704L327 563.714L327.5 565.207L322 567.197L313.5 574.66L314.5 580.133L326.5 591.576L354.5 562.221L345 554.758L347 552.768L355 556.748L409.5 494.058L405.5 490.078L406.5 488.585L419.5 498.039L422 515.95L424.5 518.935V520.925L422 518.935L372.5 575.655L370.5 583.118L382.5 593.566L443.5 525.403L445 527.393L433 541.325L444 550.28L442.5 552.27L433 544.807L429 548.29L427.5 547.295L410.5 566.699L421 576.65L416.5 581.128L406.5 572.172L384.5 595.557L397.917 607H366.384L351.5 594.064C348.367 597.556 342.765 603.786 339.838 607Z" fill="black"/>
<path fill-rule="evenodd" clip-rule="evenodd" d="M208.299 24H212.035V25.1369H212.847V26.2739H212.035V27.4108H217.72V28.5477H218.207V29.6847H225.678V29.6846H227.14H230.064H232.337H235.748H240.946V30.8216H232.337V29.847H230.064V30.8216H226.247V30.8216H223.08V31.9586H223.729V33.0955H223.08V34.2324H224.379V34.2325H243.057V35.3695H223.648V35.3694H207V34.2324H208.299V33.0955H209.111V31.9586H208.299V30.8216H209.111V29.6847H208.299V28.5477H209.111V27.4108H208.299V26.2739H209.111V25.1369H208.299V24ZM214.471 29.6847V28.5477H212.035V29.6847H214.471ZM212.035 33.0955H214.471V34.2324H212.035V33.0955ZM212.035 30.8216V31.9586H214.471V30.8216H212.035ZM219.994 33.0955H217.72V31.9586H219.994V33.0955ZM217.72 29.8471H219.994V30.8216H217.72V29.8471ZM241.758 24H238.022V25.1369H241.758V24ZM237.21 26.2739H238.022V27.4106H241.758V26.2737H240.946V25.137H237.21V26.2739ZM232.337 27.4107H240.946V28.5476H232.337V27.4107ZM226.978 30.8216H235.586V31.9585H226.978V30.8216ZM240.946 31.9586H232.337V33.0955H240.946V31.9586ZM226.978 33.0956H235.586V34.2325H226.978V33.0956ZM230.064 31.9586H226.328V33.0955H230.064V31.9586ZM238.022 30.8216H241.758V31.9585H238.022V30.8216ZM241.758 28.5476H238.022V29.6846H241.758V28.5476ZM241.758 33.0956H238.022V34.2325H241.758V33.0956ZM231.85 28.5476H235.586V29.6846H231.85V28.5476Z" fill="#FFECCC"/>
<circle cx="225.5" cy="49.5" r="7.5" fill="#FFECCC"/>
</svg>
