<svg width="111" height="28" viewBox="0 0 111 28" fill="none" xmlns="http://www.w3.org/2000/svg">
<path d="M25.3085 16.037V9.72304C25.5183 9.67363 25.7549 9.59582 25.9985 9.51573C26.3959 9.38506 26.8117 9.24831 27.1597 9.21882V16.5412C26.8434 16.3858 25.7581 16.0465 25.3085 16.037Z" fill="#D4B98B"/>
<path d="M4.68837 16.037C4.24186 16.0465 3.15349 16.3858 2.83721 16.5412V9.21882C3.18516 9.24831 3.60104 9.38506 3.99841 9.51573C4.24199 9.59582 4.47862 9.67363 4.68837 9.72304V16.037Z" fill="#D4B98B"/>
<path d="M1.85116 9.21882H0V0H30V9.21882H28.1488V1.89641H1.85116V9.21882Z" fill="#D4B98B"/>
<path d="M30 27.2727H0V16.4144H1.85116V25.2526H28.1488V16.4144H30V27.2727Z" fill="#D4B98B"/>
<path fill-rule="evenodd" clip-rule="evenodd" d="M78.3648 13.8414H79.2945V6.0037C79.8897 6.67255 86.0303 13.6342 86.2132 13.8414H87.4011V5.83854V4.24478V4.24097V4.09343H87.2688H86.6203H86.5218V4.09463V5.83854V11.9828L79.4488 4.12886C79.1882 4.12886 78.6732 4.09483 78.3633 4.09483C78.3633 7.34421 78.3633 10.5934 78.3633 13.8416H78.3648V13.8414ZM49.1391 4.84677H52.9091V13.8402H54.355V4.84677H58.125L57.9189 4.09963C57.8656 4.07701 57.7996 4.08822 57.7179 4.08702L49.3479 4.09343L49.1403 4.84677L49.1393 4.84657L49.1391 4.84677ZM76.5569 13.8402C76.0409 13.8402 75.5245 13.8402 75.0085 13.8402L74.3872 12.4836C74.351 12.4584 74.2926 12.4282 74.194 12.3725C72.4678 11.3908 70.0115 11.3706 68.3477 12.4344C68.087 12.601 67.7992 13.5221 67.6253 13.8414H66.6956C67.5969 11.8714 70.5394 5.47518 71.1879 4.09463H72.014C73.5286 7.34401 75.0435 10.592 76.5582 13.8414L76.5569 13.8402ZM68.7083 11.4793C68.8497 11.0224 71.1776 6.08978 71.3422 5.7012C72.2111 7.62309 73.0657 9.55238 73.9243 11.4793C72.372 10.6805 70.28 10.6705 68.7098 11.4793H68.7083ZM49.8615 13.8402C49.3455 13.8402 48.829 13.8402 48.313 13.8402L47.6917 12.4836C47.6555 12.4584 47.5971 12.4282 47.4985 12.3725C45.7724 11.3908 43.316 11.3706 41.6522 12.4344C41.3915 12.601 41.1037 13.5221 40.9298 13.8414H40.0001C40.9014 11.8714 43.8439 5.47518 44.4924 4.09463H45.3185C46.8332 7.34401 48.348 10.592 49.8627 13.8414L49.8615 13.8402ZM99.6902 13.8402H101.136V4.09343H99.6902V13.8402ZM59.7757 13.8402H65.4039C65.601 13.8402 65.5556 13.6848 65.5829 13.5121C65.6089 13.3479 65.649 13.2308 65.6621 13.0868H61.2218V4.09343H59.7759V13.8402L59.7757 13.8404V13.8402ZM89.0534 4.84677H92.8234V13.8402H94.2694V4.84677H98.0394L97.8332 4.09963C97.7799 4.07701 97.7139 4.08822 97.6322 4.08702L89.2623 4.09343L89.0547 4.84677L89.0536 4.84657L89.0534 4.84677ZM103.666 6.60569C103.666 7.47895 103.792 8.17303 104.605 8.70675C105.932 9.5786 107.3 9.51154 108.592 9.95217C109.375 10.2198 109.811 10.5251 109.811 11.4286C109.811 12.0911 109.363 12.5922 108.931 12.8344C108.285 13.1965 107.751 13.1939 107.037 13.2522C105.43 13.3809 103.696 12.3575 103.408 12.3335V13.3381L104.884 13.7621C106.431 14.0964 108.556 14.1899 109.864 13.2888C110.844 12.6124 111 11.8857 111 10.7764C111 9.95097 110.602 9.45768 110.101 9.08812C108.455 7.87293 104.856 8.52397 104.856 6.40409C104.856 4.40133 108.131 4.48601 109.83 5.28099C110.045 5.38189 110.319 5.55106 110.536 5.6001V4.59552C110.292 4.54007 110.104 4.44397 109.846 4.36209C108.106 3.81055 105.08 3.71105 104.045 5.36287C103.836 5.6972 103.669 6.09099 103.669 6.60449L103.666 6.60589L103.666 6.60569ZM42.0141 11.4791C42.1554 11.0222 44.4834 6.08958 44.648 5.701C45.5168 7.62289 46.3715 9.55218 47.23 11.4791C45.6777 10.6803 43.5857 10.6703 42.0155 11.4791H42.0141Z" fill="#D4B98B"/>
<g clip-path="url(#clip0_302_34)">
<path fill-rule="evenodd" clip-rule="evenodd" d="M83.4404 23.8618C83.1235 23.8618 82.8054 23.8618 82.4888 23.8618L82.1077 23.0665C82.0845 23.0522 82.05 23.0341 81.9892 23.0006C80.9292 22.4255 79.4199 22.4133 78.397 23.0365C78.2361 23.1348 78.0598 23.674 77.9529 23.8618H77.3824C77.936 22.7063 79.7432 18.9561 80.1423 18.1462H80.6498C81.5811 20.0517 82.511 21.9562 83.4408 23.8618H83.4404ZM78.6183 22.4767C78.7046 22.2088 80.1355 19.3163 80.2361 19.0892C80.7694 20.2162 81.2946 21.3477 81.8215 22.4767C80.8673 22.0078 79.583 22.0029 78.6172 22.4767H78.6183ZM61.4869 20.9564L61.2821 20.9554V20.0786V19.3993V18.575C61.9659 18.575 62.548 18.5367 63.1302 18.8105C63.4715 18.9708 63.6917 19.3379 63.6917 19.7173C63.6917 20.776 62.6448 20.9544 61.5023 20.9554H61.4869V20.9568V20.9564ZM65.0352 23.8621H64.2044C64.1039 23.7235 62.6639 21.5079 62.6152 21.3382L61.2821 21.3863V23.8625H60.5132C60.5132 21.9569 60.5132 20.0524 60.5132 18.1469C61.4457 18.1469 62.8095 18.0584 63.5915 18.4315C65.1643 19.1826 64.4272 20.9004 63.2825 21.148C63.8661 22.0538 64.4505 22.9592 65.0367 23.8635L65.0356 23.8621H65.0352ZM56.9157 23.3859C56.9157 23.5451 56.9157 23.7029 56.9157 23.8621C55.7218 23.8621 54.5279 23.8621 53.334 23.8621C53.334 21.9566 53.334 20.0521 53.334 18.1465H56.8718V18.5747H54.1026V20.7648H56.3077V21.193H54.1026V23.3831H56.9153V23.3856L56.9157 23.3859ZM51.0257 23.8621C51.2819 23.8621 51.5385 23.8621 51.7946 23.8621V18.1465H51.0257V20.7185H47.2317V18.1465H46.4628V23.8621C46.7189 23.8621 46.9755 23.8621 47.2317 23.8621V21.1466H51.0257C51.0257 22.051 51.0257 22.9564 51.0257 23.8621ZM45.3124 18.1465H41.0262H40.9707C40.5754 18.1455 40.3537 18.1368 40.2251 18.1465H40.1234L40 18.5747H42.3582V23.8618H42.6466H43.1271V18.5747H45.435L45.3116 18.1465H45.3127H45.3124ZM84.4097 23.7186C84.4097 23.8287 84.4457 23.8611 84.5631 23.8611H87.9479C87.9531 23.6517 87.9996 23.6385 87.9996 23.3849H85.179V18.1455H84.41V23.7172V23.7183L84.4097 23.7186ZM74.9739 21.7183V23.8618H75.7429V21.8138C75.7429 21.5086 77.8501 18.535 77.948 18.1462H77.3839L75.5381 21.194C75.3693 21.0888 73.7388 18.4987 73.5377 18.1462H72.7174C72.8862 18.443 73.064 18.7238 73.2598 19.0241L74.9739 21.718V21.7183ZM66.4103 20.9087C66.4103 18.4099 69.3548 17.8045 70.7328 19.0843C71.6627 19.9479 71.8225 21.911 70.809 22.8488C70.6184 23.0257 70.4279 23.186 70.1687 23.302C69.6353 23.5423 69.2839 23.5256 68.7186 23.5256C67.3315 23.5256 66.4107 22.2015 66.4107 20.9059V20.9084L66.4103 20.9087ZM72.3078 21.1947C72.3078 20.5788 72.3078 20.2102 72.0179 19.6539C71.7797 19.1958 71.7051 19.1349 71.3468 18.8011C70.0022 17.5453 66.8158 17.6982 65.8822 19.7522C65.6376 20.2893 65.545 21.001 65.6774 21.6385C66.087 23.5981 68.3101 24.4209 70.2328 23.7942C70.797 23.6099 71.3187 23.2595 71.6495 22.8721C71.9597 22.5098 72.3074 21.8336 72.3074 21.1975V21.1954L72.3078 21.1947Z" fill="#D4B98B"/>
</g>
<defs>
<clipPath id="clip0_302_34">
<rect width="48" height="6" fill="white" transform="translate(40 18)"/>
</clipPath>
</defs>
</svg>
