<svg width="312" height="229" viewBox="0 0 312 229" fill="none" xmlns="http://www.w3.org/2000/svg">
<path fill-rule="evenodd" clip-rule="evenodd" d="M168.051 138.265H172.124V96.5493C174.731 100.109 201.629 137.164 202.43 138.265H207.634V95.6694V87.1865V87.1664V86.3805H207.054H204.214H203.782V86.3872V95.6694V128.372L172.8 86.5686C171.658 86.5686 169.403 86.3872 168.045 86.3872C168.045 103.682 168.045 120.977 168.045 138.265H168.051ZM76.598 228.051H74.553L71.0537 221.811H68.4406V228.051H66.7477V211.71H71.6558C73.1896 211.71 74.3314 212.167 75.0926 213.093C75.8538 214.014 76.2344 215.243 76.2344 216.774C76.2344 218.124 75.9447 219.205 75.3653 220.018C74.7859 220.831 73.9792 221.368 72.9397 221.63V221.65L76.598 228.051ZM68.4406 213.55V219.971H71.207C72.3091 219.971 73.1328 219.676 73.6725 219.085C74.2121 218.494 74.4791 217.708 74.4791 216.727C74.4791 215.699 74.2121 214.914 73.6781 214.37C73.1441 213.826 72.4 213.55 71.44 213.55H68.4406ZM79.1429 228.051V211.71H87.6128V213.55H80.8585V219.004H86.4085V220.844H80.8585V226.211H88.0218V228.051H79.1429ZM94.6511 228.192C92.7197 228.192 91.0837 227.346 89.743 225.66L90.8337 224.142C91.3109 224.847 91.896 225.385 92.5834 225.754C93.2707 226.123 93.9638 226.305 94.6682 226.305C95.5259 226.305 96.2076 226.083 96.7189 225.64C97.2301 225.197 97.4858 224.579 97.4858 223.8C97.4858 223.37 97.4233 223 97.2983 222.691C97.1733 222.382 96.9632 222.114 96.6678 221.872C96.3667 221.63 96.077 221.449 95.7929 221.314C95.5089 221.18 95.1056 220.985 94.5943 220.744C94.5091 220.697 94.4409 220.67 94.3898 220.65C93.8842 220.414 93.4696 220.213 93.1514 220.065C92.8276 219.917 92.4641 219.696 92.0551 219.4C91.6461 219.111 91.3279 218.816 91.1007 218.514C90.8735 218.211 90.6747 217.835 90.5042 217.385C90.3338 216.935 90.2543 216.432 90.2543 215.881C90.2543 214.665 90.6633 213.651 91.4813 212.818C92.2993 211.992 93.2991 211.569 94.4807 211.555C96.0372 211.555 97.4971 212.193 98.8605 213.463L97.8266 215.028C96.7473 213.953 95.6339 213.416 94.475 213.416C93.799 213.416 93.2196 213.624 92.7424 214.047C92.2653 214.47 92.021 215.048 92.021 215.787C92.021 216.096 92.0721 216.371 92.1744 216.626C92.2766 216.882 92.3959 217.083 92.5266 217.244C92.6572 217.405 92.8844 217.587 93.2082 217.788C93.532 217.99 93.7934 218.131 93.9808 218.232C94.174 218.326 94.4977 218.48 94.9636 218.702C96.3894 219.353 97.3324 219.857 97.7812 220.226C98.7526 221.012 99.2411 222.134 99.2411 223.591C99.2411 225.035 98.7923 226.164 97.8891 226.976C96.9859 227.789 95.9009 228.199 94.6284 228.199L94.6511 228.192ZM101.962 228.051V211.71H103.678V228.051H101.962ZM107.132 228.051V211.71H111.278C113.448 211.71 115.181 212.469 116.488 213.98C117.794 215.491 118.442 217.466 118.442 219.911C118.442 222.349 117.8 224.317 116.522 225.814C115.244 227.312 113.511 228.058 111.335 228.058H107.132V228.051ZM108.824 226.231H111.222C112.869 226.231 114.198 225.64 115.204 224.458C116.209 223.276 116.715 221.758 116.715 219.897C116.715 218.01 116.215 216.472 115.215 215.296C114.215 214.114 112.909 213.523 111.301 213.523H108.83V226.231H108.824ZM121.197 228.051V211.71H129.667V213.55H122.912V219.004H128.462V220.844H122.912V226.211H130.076V228.051H121.197ZM142.215 211.71H143.908V228.051H142.176L134.427 215.162H134.387V228.051H132.694V211.71H134.41L142.204 224.713H142.215V211.71ZM153.56 228.165C151.6 228.165 149.964 227.433 148.646 225.976C147.328 224.518 146.669 222.51 146.669 219.944C146.669 217.52 147.282 215.511 148.509 213.926C149.736 212.341 151.418 211.542 153.56 211.542C155.741 211.542 157.536 212.583 158.951 214.672L157.684 215.914C156.582 214.276 155.207 213.449 153.554 213.449C151.997 213.449 150.753 214.054 149.827 215.256C148.901 216.458 148.436 218.023 148.436 219.938C148.436 221.858 148.918 223.383 149.878 224.532C150.839 225.673 152.066 226.244 153.56 226.244C155.207 226.244 156.582 225.432 157.689 223.806L158.956 225.076C157.553 227.131 155.758 228.159 153.565 228.159L153.56 228.165ZM161.302 228.051V211.71H169.772V213.55H163.018V219.004H168.568V220.844H163.018V226.211H170.181V228.051H161.302ZM176.81 228.192C174.879 228.192 173.243 227.346 171.902 225.66L172.993 224.142C173.47 224.847 174.055 225.385 174.743 225.754C175.43 226.123 176.123 226.305 176.828 226.305C177.685 226.305 178.367 226.083 178.878 225.64C179.39 225.197 179.645 224.579 179.645 223.8C179.645 223.37 179.583 223 179.458 222.691C179.333 222.382 179.123 222.114 178.827 221.872C178.526 221.63 178.236 221.449 177.952 221.314C177.668 221.18 177.265 220.985 176.754 220.744C176.668 220.697 176.6 220.67 176.549 220.65C176.044 220.414 175.629 220.213 175.311 220.065C174.987 219.917 174.623 219.696 174.214 219.4C173.805 219.111 173.487 218.816 173.26 218.514C173.033 218.211 172.834 217.835 172.664 217.385C172.493 216.935 172.414 216.432 172.414 215.881C172.414 214.665 172.823 213.651 173.641 212.818C174.459 211.992 175.458 211.569 176.64 211.555C178.197 211.555 179.656 212.193 181.02 213.463L179.986 215.028C178.907 213.953 177.793 213.416 176.634 213.416C175.958 213.416 175.379 213.624 174.902 214.047C174.425 214.47 174.18 215.048 174.18 215.787C174.18 216.096 174.231 216.371 174.334 216.626C174.436 216.882 174.555 217.083 174.686 217.244C174.817 217.405 175.044 217.587 175.368 217.788C175.691 217.99 175.953 218.131 176.14 218.232C176.333 218.326 176.657 218.48 177.123 218.702C178.549 219.353 179.492 219.857 179.941 220.226C180.912 221.012 181.4 222.134 181.4 223.591C181.4 225.035 180.952 226.164 180.048 226.976C179.145 227.789 178.06 228.199 176.788 228.199L176.81 228.192ZM189.382 228.051V211.71H193.529C195.699 211.71 197.431 212.469 198.738 213.98C200.044 215.491 200.692 217.466 200.692 219.911C200.692 222.349 200.05 224.317 198.772 225.814C197.494 227.312 195.761 228.058 193.585 228.058H189.382V228.051ZM191.075 226.231H193.472C195.119 226.231 196.449 225.64 197.454 224.458C198.459 223.276 198.965 221.758 198.965 219.897C198.965 218.01 198.465 216.472 197.465 215.296C196.466 214.114 195.159 213.523 193.551 213.523H191.08V226.231H191.075ZM208.588 228.185C206.98 228.185 205.685 227.581 204.714 226.379C203.742 225.176 203.254 223.511 203.254 221.395V211.703H204.947V221.254C204.947 222.772 205.276 223.988 205.941 224.901C206.606 225.814 207.486 226.271 208.588 226.271C209.69 226.271 210.582 225.821 211.252 224.921C211.928 224.021 212.263 222.799 212.263 221.247V211.696H213.956V221.388C213.956 223.491 213.473 225.15 212.508 226.359C211.542 227.574 210.235 228.179 208.588 228.179V228.185ZM223.943 219.461C224.789 219.676 225.477 220.139 226.005 220.844C226.539 221.549 226.806 222.476 226.806 223.632C226.806 224.968 226.414 226.036 225.636 226.842C224.857 227.648 223.71 228.051 222.188 228.051H217.143V211.71H221.659C223.062 211.71 224.153 212.039 224.943 212.69C225.727 213.342 226.119 214.343 226.119 215.693C226.119 216.519 225.931 217.278 225.562 217.963C225.193 218.648 224.653 219.132 223.937 219.427V219.474L223.943 219.461ZM218.842 213.543V218.722H221.648C222.398 218.722 223.045 218.507 223.585 218.077C224.125 217.647 224.392 216.982 224.392 216.076C224.392 214.39 223.363 213.543 221.313 213.543H218.842ZM221.722 226.204C222.733 226.204 223.54 225.969 224.136 225.499C224.733 225.029 225.034 224.344 225.034 223.437C225.034 222.517 224.755 221.798 224.199 221.288C223.642 220.77 222.841 220.515 221.801 220.515H218.842V226.204H221.722ZM238.514 228.044L237.281 224.061H231.118L229.891 228.044H228.101L233.339 211.703H235.032L240.309 228.044H238.519H238.514ZM231.657 222.315H236.741L234.214 214.141H234.179L231.657 222.308V222.315ZM242.536 228.044V211.703H244.251V228.044H242.536ZM242.933 192.816C241.536 192.816 240.133 192.816 238.735 192.816L237.054 188.35C236.952 188.269 236.798 188.169 236.531 187.981C231.856 184.75 225.198 184.683 220.688 188.182C219.978 188.733 219.2 191.762 218.728 192.816H216.212C218.654 186.328 226.624 165.272 228.385 160.725H230.623C234.73 171.424 238.832 182.117 242.933 192.816ZM221.665 185.039C222.046 183.534 228.357 167.294 228.8 166.018C231.152 172.345 233.469 178.698 235.793 185.039C231.583 182.406 225.92 182.379 221.659 185.039H221.665ZM40.0316 90.3903H56.5453V138.259H62.8792V90.3903H79.3929L78.4897 86.4141C78.2567 86.2932 77.967 86.3537 77.6091 86.3469L40.9462 86.3805L40.0373 90.3903H40.0316ZM160.132 138.259C157.871 138.259 155.61 138.259 153.349 138.259L150.628 131.038C150.469 130.904 150.214 130.743 149.782 130.447C142.221 125.222 131.462 125.114 124.174 130.776C123.032 131.663 121.771 136.566 121.009 138.265H116.936C120.884 127.781 133.774 93.7351 136.614 86.3872H140.233C146.868 103.682 153.503 120.97 160.138 138.265L160.132 138.259ZM125.753 125.692C126.372 123.261 136.569 97.006 137.29 94.9373C141.096 105.166 144.84 115.436 148.6 125.692C141.801 121.441 132.638 121.387 125.758 125.692H125.753ZM43.1957 138.259C40.9348 138.259 38.6739 138.259 36.413 138.259L33.692 131.038C33.5329 130.904 33.2773 130.743 32.8456 130.447C25.2846 125.222 14.5254 125.114 7.23716 130.776C6.09535 131.663 4.83424 136.566 4.07303 138.265H0C3.94806 127.781 16.8375 93.7351 19.6778 86.3872H23.2964C29.9314 103.682 36.5664 120.97 43.2014 138.265L43.1957 138.259ZM146.107 176.502L145.203 176.495V171.572V167.757V163.13C148.22 163.13 150.787 162.915 153.355 164.453C154.86 165.353 155.832 167.415 155.832 169.544C155.832 175.488 151.213 176.489 146.175 176.495H146.107V176.502ZM161.757 192.816H158.093C157.65 192.037 151.299 179.598 151.083 178.645L145.203 178.913V192.816H141.812C141.812 182.117 141.812 171.424 141.812 160.725C145.925 160.725 151.941 160.228 155.389 162.324C162.325 166.542 159.075 176.186 154.025 177.577C156.599 182.661 159.178 187.745 161.762 192.823L161.757 192.816ZM125.946 190.143C125.946 191.037 125.946 191.923 125.946 192.816C120.68 192.816 115.414 192.816 110.148 192.816C110.148 182.117 110.148 171.424 110.148 160.725H125.753V163.13H113.539V175.428H123.265V177.832H113.539V190.13H125.946V190.143ZM99.9682 192.816C101.099 192.816 102.229 192.816 103.36 192.816V160.725H99.9682V175.166H83.233V160.725H79.8417V192.816C80.9721 192.816 82.1026 192.816 83.233 192.816V177.57H99.9682C99.9682 182.648 99.9682 187.732 99.9682 192.816ZM74.7688 160.725H55.8636H55.6193C53.8754 160.718 52.8983 160.671 52.3302 160.725H51.8815L51.3361 163.13H61.7374V192.816H63.0099H65.1287V163.13H75.3085L74.7631 160.725H74.7688ZM176.419 20.5927V33.9652C177.242 33.9853 179.23 34.704 179.81 35.0331V19.5248C178.782 19.6255 177.43 20.3173 176.419 20.5927ZM135.251 35.0331C135.83 34.704 137.824 33.9853 138.642 33.9652V20.5927C137.631 20.3173 136.279 19.6255 135.251 19.5248V35.0331ZM247.211 192.01C247.211 192.628 247.37 192.81 247.887 192.81H262.816C262.838 191.634 263.043 191.56 263.043 190.137H250.602V160.718H247.211V192.004V192.01ZM205.594 180.781V192.816H208.986V181.318C208.986 179.605 218.279 162.908 218.711 160.725H216.223L208.083 177.839C207.338 177.248 200.147 162.706 199.26 160.725H195.642C196.386 162.391 197.17 163.969 198.033 165.655L205.594 180.781ZM167.824 176.233C167.824 162.203 180.81 158.804 186.888 165.991C190.989 170.84 191.694 181.862 187.223 187.128C186.382 188.122 185.542 189.022 184.4 189.673C182.048 191.023 180.497 190.929 178.003 190.929C171.885 190.929 167.824 183.494 167.824 176.22V176.233ZM193.835 177.839C193.835 174.38 193.835 172.311 192.557 169.188C191.506 166.615 191.177 166.273 189.598 164.399C183.667 157.347 169.613 158.206 165.495 169.739C164.415 172.754 164.006 176.751 164.591 180.331C166.398 191.332 176.203 195.953 184.684 192.434C187.172 191.399 189.473 189.431 190.933 187.255C192.302 185.22 193.835 181.425 193.835 177.852V177.839ZM130.053 19.5248H133.444V4.01645H181.622V19.5248H185.013V0H130.053V19.5248ZM261.464 138.259H267.798V86.3805H261.464V138.259ZM130.053 57.7617H185.013V34.7645H181.622V53.4833H133.444V34.7645H130.053V57.7617ZM86.6244 138.259H111.278C112.142 138.259 111.943 137.432 112.062 136.512C112.176 135.639 112.352 135.014 112.409 134.249H92.9583V86.3805H86.6244V138.259ZM214.871 90.3903H231.385V138.259H237.719V90.3903H254.232L253.329 86.4141C253.096 86.2932 252.806 86.3537 252.448 86.3469L215.785 86.3805L214.877 90.3903H214.871ZM278.881 99.753C278.881 104.401 279.432 108.095 282.993 110.936C288.805 115.577 294.798 115.221 300.456 117.565C303.887 118.989 305.796 120.614 305.796 125.423C305.796 128.95 303.836 131.616 301.944 132.906C299.115 134.833 296.775 134.82 293.645 135.129C286.606 135.814 279.011 130.367 277.75 130.239V135.585L284.215 137.842C290.992 139.622 300.302 140.119 306.028 135.323C310.323 131.723 311.005 127.855 311.005 121.951C311.005 117.558 309.261 114.932 307.068 112.964C299.859 106.496 284.09 109.962 284.09 98.6784C284.09 88.0193 298.439 88.4693 305.881 92.7007C306.824 93.238 308.022 94.138 308.971 94.4V89.0537C307.903 88.7582 307.079 88.2477 305.949 87.8111C298.331 84.876 285.072 84.3454 280.539 93.1373C279.625 94.9172 278.892 97.0127 278.892 99.7463L278.881 99.753ZM8.82206 125.692C9.44125 123.261 19.638 97.006 20.3595 94.9373C24.1655 105.166 27.9091 115.436 31.6697 125.692C24.8699 121.441 15.707 121.387 8.82774 125.692H8.82206Z" fill="white"/>
</svg>
